%TF.GenerationSoftware,KiCad,Pcbnew,7.0.5*%
%TF.CreationDate,2023-07-29T13:43:45+03:00*%
%TF.ProjectId,cf33_dock,63663333-5f64-46f6-936b-2e6b69636164,rev?*%
%TF.SameCoordinates,Original*%
%TF.FileFunction,Legend,Bot*%
%TF.FilePolarity,Positive*%
%FSLAX46Y46*%
G04 Gerber Fmt 4.6, Leading zero omitted, Abs format (unit mm)*
G04 Created by KiCad (PCBNEW 7.0.5) date 2023-07-29 13:43:45*
%MOMM*%
%LPD*%
G01*
G04 APERTURE LIST*
%ADD10C,0.254000*%
%ADD11C,0.150000*%
%ADD12C,0.200000*%
%ADD13C,0.120000*%
G04 APERTURE END LIST*
D10*
X286288696Y-209629056D02*
X286288696Y-208359056D01*
X284958219Y-209508103D02*
X285018695Y-209568580D01*
X285018695Y-209568580D02*
X285200124Y-209629056D01*
X285200124Y-209629056D02*
X285321076Y-209629056D01*
X285321076Y-209629056D02*
X285502505Y-209568580D01*
X285502505Y-209568580D02*
X285623457Y-209447627D01*
X285623457Y-209447627D02*
X285683934Y-209326675D01*
X285683934Y-209326675D02*
X285744410Y-209084770D01*
X285744410Y-209084770D02*
X285744410Y-208903341D01*
X285744410Y-208903341D02*
X285683934Y-208661437D01*
X285683934Y-208661437D02*
X285623457Y-208540484D01*
X285623457Y-208540484D02*
X285502505Y-208419532D01*
X285502505Y-208419532D02*
X285321076Y-208359056D01*
X285321076Y-208359056D02*
X285200124Y-208359056D01*
X285200124Y-208359056D02*
X285018695Y-208419532D01*
X285018695Y-208419532D02*
X284958219Y-208480008D01*
X284534886Y-208359056D02*
X283688219Y-208359056D01*
X283688219Y-208359056D02*
X284232505Y-209629056D01*
D11*
X248841791Y-187859557D02*
X249175124Y-187383366D01*
X249413219Y-187859557D02*
X249413219Y-186859557D01*
X249413219Y-186859557D02*
X249032267Y-186859557D01*
X249032267Y-186859557D02*
X248937029Y-186907176D01*
X248937029Y-186907176D02*
X248889410Y-186954795D01*
X248889410Y-186954795D02*
X248841791Y-187050033D01*
X248841791Y-187050033D02*
X248841791Y-187192890D01*
X248841791Y-187192890D02*
X248889410Y-187288128D01*
X248889410Y-187288128D02*
X248937029Y-187335747D01*
X248937029Y-187335747D02*
X249032267Y-187383366D01*
X249032267Y-187383366D02*
X249413219Y-187383366D01*
X247889410Y-187859557D02*
X248460838Y-187859557D01*
X248175124Y-187859557D02*
X248175124Y-186859557D01*
X248175124Y-186859557D02*
X248270362Y-187002414D01*
X248270362Y-187002414D02*
X248365600Y-187097652D01*
X248365600Y-187097652D02*
X248460838Y-187145271D01*
X247413219Y-187859557D02*
X247222743Y-187859557D01*
X247222743Y-187859557D02*
X247127505Y-187811938D01*
X247127505Y-187811938D02*
X247079886Y-187764318D01*
X247079886Y-187764318D02*
X246984648Y-187621461D01*
X246984648Y-187621461D02*
X246937029Y-187430985D01*
X246937029Y-187430985D02*
X246937029Y-187050033D01*
X246937029Y-187050033D02*
X246984648Y-186954795D01*
X246984648Y-186954795D02*
X247032267Y-186907176D01*
X247032267Y-186907176D02*
X247127505Y-186859557D01*
X247127505Y-186859557D02*
X247317981Y-186859557D01*
X247317981Y-186859557D02*
X247413219Y-186907176D01*
X247413219Y-186907176D02*
X247460838Y-186954795D01*
X247460838Y-186954795D02*
X247508457Y-187050033D01*
X247508457Y-187050033D02*
X247508457Y-187288128D01*
X247508457Y-187288128D02*
X247460838Y-187383366D01*
X247460838Y-187383366D02*
X247413219Y-187430985D01*
X247413219Y-187430985D02*
X247317981Y-187478604D01*
X247317981Y-187478604D02*
X247127505Y-187478604D01*
X247127505Y-187478604D02*
X247032267Y-187430985D01*
X247032267Y-187430985D02*
X246984648Y-187383366D01*
X246984648Y-187383366D02*
X246937029Y-187288128D01*
X251488111Y-173584811D02*
X251821444Y-173108620D01*
X252059539Y-173584811D02*
X252059539Y-172584811D01*
X252059539Y-172584811D02*
X251678587Y-172584811D01*
X251678587Y-172584811D02*
X251583349Y-172632430D01*
X251583349Y-172632430D02*
X251535730Y-172680049D01*
X251535730Y-172680049D02*
X251488111Y-172775287D01*
X251488111Y-172775287D02*
X251488111Y-172918144D01*
X251488111Y-172918144D02*
X251535730Y-173013382D01*
X251535730Y-173013382D02*
X251583349Y-173061001D01*
X251583349Y-173061001D02*
X251678587Y-173108620D01*
X251678587Y-173108620D02*
X252059539Y-173108620D01*
X251107158Y-172680049D02*
X251059539Y-172632430D01*
X251059539Y-172632430D02*
X250964301Y-172584811D01*
X250964301Y-172584811D02*
X250726206Y-172584811D01*
X250726206Y-172584811D02*
X250630968Y-172632430D01*
X250630968Y-172632430D02*
X250583349Y-172680049D01*
X250583349Y-172680049D02*
X250535730Y-172775287D01*
X250535730Y-172775287D02*
X250535730Y-172870525D01*
X250535730Y-172870525D02*
X250583349Y-173013382D01*
X250583349Y-173013382D02*
X251154777Y-173584811D01*
X251154777Y-173584811D02*
X250535730Y-173584811D01*
X249678587Y-172584811D02*
X249869063Y-172584811D01*
X249869063Y-172584811D02*
X249964301Y-172632430D01*
X249964301Y-172632430D02*
X250011920Y-172680049D01*
X250011920Y-172680049D02*
X250107158Y-172822906D01*
X250107158Y-172822906D02*
X250154777Y-173013382D01*
X250154777Y-173013382D02*
X250154777Y-173394334D01*
X250154777Y-173394334D02*
X250107158Y-173489572D01*
X250107158Y-173489572D02*
X250059539Y-173537192D01*
X250059539Y-173537192D02*
X249964301Y-173584811D01*
X249964301Y-173584811D02*
X249773825Y-173584811D01*
X249773825Y-173584811D02*
X249678587Y-173537192D01*
X249678587Y-173537192D02*
X249630968Y-173489572D01*
X249630968Y-173489572D02*
X249583349Y-173394334D01*
X249583349Y-173394334D02*
X249583349Y-173156239D01*
X249583349Y-173156239D02*
X249630968Y-173061001D01*
X249630968Y-173061001D02*
X249678587Y-173013382D01*
X249678587Y-173013382D02*
X249773825Y-172965763D01*
X249773825Y-172965763D02*
X249964301Y-172965763D01*
X249964301Y-172965763D02*
X250059539Y-173013382D01*
X250059539Y-173013382D02*
X250107158Y-173061001D01*
X250107158Y-173061001D02*
X250154777Y-173156239D01*
X244015600Y-188859557D02*
X244348933Y-188383366D01*
X244587028Y-188859557D02*
X244587028Y-187859557D01*
X244587028Y-187859557D02*
X244206076Y-187859557D01*
X244206076Y-187859557D02*
X244110838Y-187907176D01*
X244110838Y-187907176D02*
X244063219Y-187954795D01*
X244063219Y-187954795D02*
X244015600Y-188050033D01*
X244015600Y-188050033D02*
X244015600Y-188192890D01*
X244015600Y-188192890D02*
X244063219Y-188288128D01*
X244063219Y-188288128D02*
X244110838Y-188335747D01*
X244110838Y-188335747D02*
X244206076Y-188383366D01*
X244206076Y-188383366D02*
X244587028Y-188383366D01*
X243634647Y-187954795D02*
X243587028Y-187907176D01*
X243587028Y-187907176D02*
X243491790Y-187859557D01*
X243491790Y-187859557D02*
X243253695Y-187859557D01*
X243253695Y-187859557D02*
X243158457Y-187907176D01*
X243158457Y-187907176D02*
X243110838Y-187954795D01*
X243110838Y-187954795D02*
X243063219Y-188050033D01*
X243063219Y-188050033D02*
X243063219Y-188145271D01*
X243063219Y-188145271D02*
X243110838Y-188288128D01*
X243110838Y-188288128D02*
X243682266Y-188859557D01*
X243682266Y-188859557D02*
X243063219Y-188859557D01*
X247965600Y-189809557D02*
X248298933Y-189333366D01*
X248537028Y-189809557D02*
X248537028Y-188809557D01*
X248537028Y-188809557D02*
X248156076Y-188809557D01*
X248156076Y-188809557D02*
X248060838Y-188857176D01*
X248060838Y-188857176D02*
X248013219Y-188904795D01*
X248013219Y-188904795D02*
X247965600Y-189000033D01*
X247965600Y-189000033D02*
X247965600Y-189142890D01*
X247965600Y-189142890D02*
X248013219Y-189238128D01*
X248013219Y-189238128D02*
X248060838Y-189285747D01*
X248060838Y-189285747D02*
X248156076Y-189333366D01*
X248156076Y-189333366D02*
X248537028Y-189333366D01*
X247108457Y-189142890D02*
X247108457Y-189809557D01*
X247346552Y-188761938D02*
X247584647Y-189476223D01*
X247584647Y-189476223D02*
X246965600Y-189476223D01*
X226791791Y-210764318D02*
X226839410Y-210811938D01*
X226839410Y-210811938D02*
X226982267Y-210859557D01*
X226982267Y-210859557D02*
X227077505Y-210859557D01*
X227077505Y-210859557D02*
X227220362Y-210811938D01*
X227220362Y-210811938D02*
X227315600Y-210716699D01*
X227315600Y-210716699D02*
X227363219Y-210621461D01*
X227363219Y-210621461D02*
X227410838Y-210430985D01*
X227410838Y-210430985D02*
X227410838Y-210288128D01*
X227410838Y-210288128D02*
X227363219Y-210097652D01*
X227363219Y-210097652D02*
X227315600Y-210002414D01*
X227315600Y-210002414D02*
X227220362Y-209907176D01*
X227220362Y-209907176D02*
X227077505Y-209859557D01*
X227077505Y-209859557D02*
X226982267Y-209859557D01*
X226982267Y-209859557D02*
X226839410Y-209907176D01*
X226839410Y-209907176D02*
X226791791Y-209954795D01*
X226410838Y-209954795D02*
X226363219Y-209907176D01*
X226363219Y-209907176D02*
X226267981Y-209859557D01*
X226267981Y-209859557D02*
X226029886Y-209859557D01*
X226029886Y-209859557D02*
X225934648Y-209907176D01*
X225934648Y-209907176D02*
X225887029Y-209954795D01*
X225887029Y-209954795D02*
X225839410Y-210050033D01*
X225839410Y-210050033D02*
X225839410Y-210145271D01*
X225839410Y-210145271D02*
X225887029Y-210288128D01*
X225887029Y-210288128D02*
X226458457Y-210859557D01*
X226458457Y-210859557D02*
X225839410Y-210859557D01*
X225458457Y-209954795D02*
X225410838Y-209907176D01*
X225410838Y-209907176D02*
X225315600Y-209859557D01*
X225315600Y-209859557D02*
X225077505Y-209859557D01*
X225077505Y-209859557D02*
X224982267Y-209907176D01*
X224982267Y-209907176D02*
X224934648Y-209954795D01*
X224934648Y-209954795D02*
X224887029Y-210050033D01*
X224887029Y-210050033D02*
X224887029Y-210145271D01*
X224887029Y-210145271D02*
X224934648Y-210288128D01*
X224934648Y-210288128D02*
X225506076Y-210859557D01*
X225506076Y-210859557D02*
X224887029Y-210859557D01*
X226791791Y-209514318D02*
X226839410Y-209561938D01*
X226839410Y-209561938D02*
X226982267Y-209609557D01*
X226982267Y-209609557D02*
X227077505Y-209609557D01*
X227077505Y-209609557D02*
X227220362Y-209561938D01*
X227220362Y-209561938D02*
X227315600Y-209466699D01*
X227315600Y-209466699D02*
X227363219Y-209371461D01*
X227363219Y-209371461D02*
X227410838Y-209180985D01*
X227410838Y-209180985D02*
X227410838Y-209038128D01*
X227410838Y-209038128D02*
X227363219Y-208847652D01*
X227363219Y-208847652D02*
X227315600Y-208752414D01*
X227315600Y-208752414D02*
X227220362Y-208657176D01*
X227220362Y-208657176D02*
X227077505Y-208609557D01*
X227077505Y-208609557D02*
X226982267Y-208609557D01*
X226982267Y-208609557D02*
X226839410Y-208657176D01*
X226839410Y-208657176D02*
X226791791Y-208704795D01*
X226410838Y-208704795D02*
X226363219Y-208657176D01*
X226363219Y-208657176D02*
X226267981Y-208609557D01*
X226267981Y-208609557D02*
X226029886Y-208609557D01*
X226029886Y-208609557D02*
X225934648Y-208657176D01*
X225934648Y-208657176D02*
X225887029Y-208704795D01*
X225887029Y-208704795D02*
X225839410Y-208800033D01*
X225839410Y-208800033D02*
X225839410Y-208895271D01*
X225839410Y-208895271D02*
X225887029Y-209038128D01*
X225887029Y-209038128D02*
X226458457Y-209609557D01*
X226458457Y-209609557D02*
X225839410Y-209609557D01*
X225506076Y-208609557D02*
X224887029Y-208609557D01*
X224887029Y-208609557D02*
X225220362Y-208990509D01*
X225220362Y-208990509D02*
X225077505Y-208990509D01*
X225077505Y-208990509D02*
X224982267Y-209038128D01*
X224982267Y-209038128D02*
X224934648Y-209085747D01*
X224934648Y-209085747D02*
X224887029Y-209180985D01*
X224887029Y-209180985D02*
X224887029Y-209419080D01*
X224887029Y-209419080D02*
X224934648Y-209514318D01*
X224934648Y-209514318D02*
X224982267Y-209561938D01*
X224982267Y-209561938D02*
X225077505Y-209609557D01*
X225077505Y-209609557D02*
X225363219Y-209609557D01*
X225363219Y-209609557D02*
X225458457Y-209561938D01*
X225458457Y-209561938D02*
X225506076Y-209514318D01*
X259153753Y-182261880D02*
X258677562Y-181928547D01*
X259153753Y-181690452D02*
X258153753Y-181690452D01*
X258153753Y-181690452D02*
X258153753Y-182071404D01*
X258153753Y-182071404D02*
X258201372Y-182166642D01*
X258201372Y-182166642D02*
X258248991Y-182214261D01*
X258248991Y-182214261D02*
X258344229Y-182261880D01*
X258344229Y-182261880D02*
X258487086Y-182261880D01*
X258487086Y-182261880D02*
X258582324Y-182214261D01*
X258582324Y-182214261D02*
X258629943Y-182166642D01*
X258629943Y-182166642D02*
X258677562Y-182071404D01*
X258677562Y-182071404D02*
X258677562Y-181690452D01*
X258248991Y-182642833D02*
X258201372Y-182690452D01*
X258201372Y-182690452D02*
X258153753Y-182785690D01*
X258153753Y-182785690D02*
X258153753Y-183023785D01*
X258153753Y-183023785D02*
X258201372Y-183119023D01*
X258201372Y-183119023D02*
X258248991Y-183166642D01*
X258248991Y-183166642D02*
X258344229Y-183214261D01*
X258344229Y-183214261D02*
X258439467Y-183214261D01*
X258439467Y-183214261D02*
X258582324Y-183166642D01*
X258582324Y-183166642D02*
X259153753Y-182595214D01*
X259153753Y-182595214D02*
X259153753Y-183214261D01*
X258582324Y-183785690D02*
X258534705Y-183690452D01*
X258534705Y-183690452D02*
X258487086Y-183642833D01*
X258487086Y-183642833D02*
X258391848Y-183595214D01*
X258391848Y-183595214D02*
X258344229Y-183595214D01*
X258344229Y-183595214D02*
X258248991Y-183642833D01*
X258248991Y-183642833D02*
X258201372Y-183690452D01*
X258201372Y-183690452D02*
X258153753Y-183785690D01*
X258153753Y-183785690D02*
X258153753Y-183976166D01*
X258153753Y-183976166D02*
X258201372Y-184071404D01*
X258201372Y-184071404D02*
X258248991Y-184119023D01*
X258248991Y-184119023D02*
X258344229Y-184166642D01*
X258344229Y-184166642D02*
X258391848Y-184166642D01*
X258391848Y-184166642D02*
X258487086Y-184119023D01*
X258487086Y-184119023D02*
X258534705Y-184071404D01*
X258534705Y-184071404D02*
X258582324Y-183976166D01*
X258582324Y-183976166D02*
X258582324Y-183785690D01*
X258582324Y-183785690D02*
X258629943Y-183690452D01*
X258629943Y-183690452D02*
X258677562Y-183642833D01*
X258677562Y-183642833D02*
X258772800Y-183595214D01*
X258772800Y-183595214D02*
X258963276Y-183595214D01*
X258963276Y-183595214D02*
X259058514Y-183642833D01*
X259058514Y-183642833D02*
X259106134Y-183690452D01*
X259106134Y-183690452D02*
X259153753Y-183785690D01*
X259153753Y-183785690D02*
X259153753Y-183976166D01*
X259153753Y-183976166D02*
X259106134Y-184071404D01*
X259106134Y-184071404D02*
X259058514Y-184119023D01*
X259058514Y-184119023D02*
X258963276Y-184166642D01*
X258963276Y-184166642D02*
X258772800Y-184166642D01*
X258772800Y-184166642D02*
X258677562Y-184119023D01*
X258677562Y-184119023D02*
X258629943Y-184071404D01*
X258629943Y-184071404D02*
X258582324Y-183976166D01*
X288153753Y-207111880D02*
X287677562Y-206778547D01*
X288153753Y-206540452D02*
X287153753Y-206540452D01*
X287153753Y-206540452D02*
X287153753Y-206921404D01*
X287153753Y-206921404D02*
X287201372Y-207016642D01*
X287201372Y-207016642D02*
X287248991Y-207064261D01*
X287248991Y-207064261D02*
X287344229Y-207111880D01*
X287344229Y-207111880D02*
X287487086Y-207111880D01*
X287487086Y-207111880D02*
X287582324Y-207064261D01*
X287582324Y-207064261D02*
X287629943Y-207016642D01*
X287629943Y-207016642D02*
X287677562Y-206921404D01*
X287677562Y-206921404D02*
X287677562Y-206540452D01*
X287487086Y-207969023D02*
X288153753Y-207969023D01*
X287106134Y-207730928D02*
X287820419Y-207492833D01*
X287820419Y-207492833D02*
X287820419Y-208111880D01*
X287153753Y-208921404D02*
X287153753Y-208730928D01*
X287153753Y-208730928D02*
X287201372Y-208635690D01*
X287201372Y-208635690D02*
X287248991Y-208588071D01*
X287248991Y-208588071D02*
X287391848Y-208492833D01*
X287391848Y-208492833D02*
X287582324Y-208445214D01*
X287582324Y-208445214D02*
X287963276Y-208445214D01*
X287963276Y-208445214D02*
X288058514Y-208492833D01*
X288058514Y-208492833D02*
X288106134Y-208540452D01*
X288106134Y-208540452D02*
X288153753Y-208635690D01*
X288153753Y-208635690D02*
X288153753Y-208826166D01*
X288153753Y-208826166D02*
X288106134Y-208921404D01*
X288106134Y-208921404D02*
X288058514Y-208969023D01*
X288058514Y-208969023D02*
X287963276Y-209016642D01*
X287963276Y-209016642D02*
X287725181Y-209016642D01*
X287725181Y-209016642D02*
X287629943Y-208969023D01*
X287629943Y-208969023D02*
X287582324Y-208921404D01*
X287582324Y-208921404D02*
X287534705Y-208826166D01*
X287534705Y-208826166D02*
X287534705Y-208635690D01*
X287534705Y-208635690D02*
X287582324Y-208540452D01*
X287582324Y-208540452D02*
X287629943Y-208492833D01*
X287629943Y-208492833D02*
X287725181Y-208445214D01*
X288253753Y-213861880D02*
X287777562Y-213528547D01*
X288253753Y-213290452D02*
X287253753Y-213290452D01*
X287253753Y-213290452D02*
X287253753Y-213671404D01*
X287253753Y-213671404D02*
X287301372Y-213766642D01*
X287301372Y-213766642D02*
X287348991Y-213814261D01*
X287348991Y-213814261D02*
X287444229Y-213861880D01*
X287444229Y-213861880D02*
X287587086Y-213861880D01*
X287587086Y-213861880D02*
X287682324Y-213814261D01*
X287682324Y-213814261D02*
X287729943Y-213766642D01*
X287729943Y-213766642D02*
X287777562Y-213671404D01*
X287777562Y-213671404D02*
X287777562Y-213290452D01*
X287587086Y-214719023D02*
X288253753Y-214719023D01*
X287206134Y-214480928D02*
X287920419Y-214242833D01*
X287920419Y-214242833D02*
X287920419Y-214861880D01*
X287253753Y-215147595D02*
X287253753Y-215814261D01*
X287253753Y-215814261D02*
X288253753Y-215385690D01*
X231241791Y-152459557D02*
X231575124Y-151983366D01*
X231813219Y-152459557D02*
X231813219Y-151459557D01*
X231813219Y-151459557D02*
X231432267Y-151459557D01*
X231432267Y-151459557D02*
X231337029Y-151507176D01*
X231337029Y-151507176D02*
X231289410Y-151554795D01*
X231289410Y-151554795D02*
X231241791Y-151650033D01*
X231241791Y-151650033D02*
X231241791Y-151792890D01*
X231241791Y-151792890D02*
X231289410Y-151888128D01*
X231289410Y-151888128D02*
X231337029Y-151935747D01*
X231337029Y-151935747D02*
X231432267Y-151983366D01*
X231432267Y-151983366D02*
X231813219Y-151983366D01*
X230337029Y-151459557D02*
X230813219Y-151459557D01*
X230813219Y-151459557D02*
X230860838Y-151935747D01*
X230860838Y-151935747D02*
X230813219Y-151888128D01*
X230813219Y-151888128D02*
X230717981Y-151840509D01*
X230717981Y-151840509D02*
X230479886Y-151840509D01*
X230479886Y-151840509D02*
X230384648Y-151888128D01*
X230384648Y-151888128D02*
X230337029Y-151935747D01*
X230337029Y-151935747D02*
X230289410Y-152030985D01*
X230289410Y-152030985D02*
X230289410Y-152269080D01*
X230289410Y-152269080D02*
X230337029Y-152364318D01*
X230337029Y-152364318D02*
X230384648Y-152411938D01*
X230384648Y-152411938D02*
X230479886Y-152459557D01*
X230479886Y-152459557D02*
X230717981Y-152459557D01*
X230717981Y-152459557D02*
X230813219Y-152411938D01*
X230813219Y-152411938D02*
X230860838Y-152364318D01*
X229670362Y-151459557D02*
X229575124Y-151459557D01*
X229575124Y-151459557D02*
X229479886Y-151507176D01*
X229479886Y-151507176D02*
X229432267Y-151554795D01*
X229432267Y-151554795D02*
X229384648Y-151650033D01*
X229384648Y-151650033D02*
X229337029Y-151840509D01*
X229337029Y-151840509D02*
X229337029Y-152078604D01*
X229337029Y-152078604D02*
X229384648Y-152269080D01*
X229384648Y-152269080D02*
X229432267Y-152364318D01*
X229432267Y-152364318D02*
X229479886Y-152411938D01*
X229479886Y-152411938D02*
X229575124Y-152459557D01*
X229575124Y-152459557D02*
X229670362Y-152459557D01*
X229670362Y-152459557D02*
X229765600Y-152411938D01*
X229765600Y-152411938D02*
X229813219Y-152364318D01*
X229813219Y-152364318D02*
X229860838Y-152269080D01*
X229860838Y-152269080D02*
X229908457Y-152078604D01*
X229908457Y-152078604D02*
X229908457Y-151840509D01*
X229908457Y-151840509D02*
X229860838Y-151650033D01*
X229860838Y-151650033D02*
X229813219Y-151554795D01*
X229813219Y-151554795D02*
X229765600Y-151507176D01*
X229765600Y-151507176D02*
X229670362Y-151459557D01*
X225803753Y-150911880D02*
X225327562Y-150578547D01*
X225803753Y-150340452D02*
X224803753Y-150340452D01*
X224803753Y-150340452D02*
X224803753Y-150721404D01*
X224803753Y-150721404D02*
X224851372Y-150816642D01*
X224851372Y-150816642D02*
X224898991Y-150864261D01*
X224898991Y-150864261D02*
X224994229Y-150911880D01*
X224994229Y-150911880D02*
X225137086Y-150911880D01*
X225137086Y-150911880D02*
X225232324Y-150864261D01*
X225232324Y-150864261D02*
X225279943Y-150816642D01*
X225279943Y-150816642D02*
X225327562Y-150721404D01*
X225327562Y-150721404D02*
X225327562Y-150340452D01*
X225137086Y-151769023D02*
X225803753Y-151769023D01*
X224756134Y-151530928D02*
X225470419Y-151292833D01*
X225470419Y-151292833D02*
X225470419Y-151911880D01*
X225803753Y-152340452D02*
X225803753Y-152530928D01*
X225803753Y-152530928D02*
X225756134Y-152626166D01*
X225756134Y-152626166D02*
X225708514Y-152673785D01*
X225708514Y-152673785D02*
X225565657Y-152769023D01*
X225565657Y-152769023D02*
X225375181Y-152816642D01*
X225375181Y-152816642D02*
X224994229Y-152816642D01*
X224994229Y-152816642D02*
X224898991Y-152769023D01*
X224898991Y-152769023D02*
X224851372Y-152721404D01*
X224851372Y-152721404D02*
X224803753Y-152626166D01*
X224803753Y-152626166D02*
X224803753Y-152435690D01*
X224803753Y-152435690D02*
X224851372Y-152340452D01*
X224851372Y-152340452D02*
X224898991Y-152292833D01*
X224898991Y-152292833D02*
X224994229Y-152245214D01*
X224994229Y-152245214D02*
X225232324Y-152245214D01*
X225232324Y-152245214D02*
X225327562Y-152292833D01*
X225327562Y-152292833D02*
X225375181Y-152340452D01*
X225375181Y-152340452D02*
X225422800Y-152435690D01*
X225422800Y-152435690D02*
X225422800Y-152626166D01*
X225422800Y-152626166D02*
X225375181Y-152721404D01*
X225375181Y-152721404D02*
X225327562Y-152769023D01*
X225327562Y-152769023D02*
X225232324Y-152816642D01*
X232891791Y-204309557D02*
X233225124Y-203833366D01*
X233463219Y-204309557D02*
X233463219Y-203309557D01*
X233463219Y-203309557D02*
X233082267Y-203309557D01*
X233082267Y-203309557D02*
X232987029Y-203357176D01*
X232987029Y-203357176D02*
X232939410Y-203404795D01*
X232939410Y-203404795D02*
X232891791Y-203500033D01*
X232891791Y-203500033D02*
X232891791Y-203642890D01*
X232891791Y-203642890D02*
X232939410Y-203738128D01*
X232939410Y-203738128D02*
X232987029Y-203785747D01*
X232987029Y-203785747D02*
X233082267Y-203833366D01*
X233082267Y-203833366D02*
X233463219Y-203833366D01*
X232558457Y-203309557D02*
X231939410Y-203309557D01*
X231939410Y-203309557D02*
X232272743Y-203690509D01*
X232272743Y-203690509D02*
X232129886Y-203690509D01*
X232129886Y-203690509D02*
X232034648Y-203738128D01*
X232034648Y-203738128D02*
X231987029Y-203785747D01*
X231987029Y-203785747D02*
X231939410Y-203880985D01*
X231939410Y-203880985D02*
X231939410Y-204119080D01*
X231939410Y-204119080D02*
X231987029Y-204214318D01*
X231987029Y-204214318D02*
X232034648Y-204261938D01*
X232034648Y-204261938D02*
X232129886Y-204309557D01*
X232129886Y-204309557D02*
X232415600Y-204309557D01*
X232415600Y-204309557D02*
X232510838Y-204261938D01*
X232510838Y-204261938D02*
X232558457Y-204214318D01*
X231082267Y-203309557D02*
X231272743Y-203309557D01*
X231272743Y-203309557D02*
X231367981Y-203357176D01*
X231367981Y-203357176D02*
X231415600Y-203404795D01*
X231415600Y-203404795D02*
X231510838Y-203547652D01*
X231510838Y-203547652D02*
X231558457Y-203738128D01*
X231558457Y-203738128D02*
X231558457Y-204119080D01*
X231558457Y-204119080D02*
X231510838Y-204214318D01*
X231510838Y-204214318D02*
X231463219Y-204261938D01*
X231463219Y-204261938D02*
X231367981Y-204309557D01*
X231367981Y-204309557D02*
X231177505Y-204309557D01*
X231177505Y-204309557D02*
X231082267Y-204261938D01*
X231082267Y-204261938D02*
X231034648Y-204214318D01*
X231034648Y-204214318D02*
X230987029Y-204119080D01*
X230987029Y-204119080D02*
X230987029Y-203880985D01*
X230987029Y-203880985D02*
X231034648Y-203785747D01*
X231034648Y-203785747D02*
X231082267Y-203738128D01*
X231082267Y-203738128D02*
X231177505Y-203690509D01*
X231177505Y-203690509D02*
X231367981Y-203690509D01*
X231367981Y-203690509D02*
X231463219Y-203738128D01*
X231463219Y-203738128D02*
X231510838Y-203785747D01*
X231510838Y-203785747D02*
X231558457Y-203880985D01*
X256503753Y-177411880D02*
X256027562Y-177078547D01*
X256503753Y-176840452D02*
X255503753Y-176840452D01*
X255503753Y-176840452D02*
X255503753Y-177221404D01*
X255503753Y-177221404D02*
X255551372Y-177316642D01*
X255551372Y-177316642D02*
X255598991Y-177364261D01*
X255598991Y-177364261D02*
X255694229Y-177411880D01*
X255694229Y-177411880D02*
X255837086Y-177411880D01*
X255837086Y-177411880D02*
X255932324Y-177364261D01*
X255932324Y-177364261D02*
X255979943Y-177316642D01*
X255979943Y-177316642D02*
X256027562Y-177221404D01*
X256027562Y-177221404D02*
X256027562Y-176840452D01*
X255503753Y-177745214D02*
X255503753Y-178364261D01*
X255503753Y-178364261D02*
X255884705Y-178030928D01*
X255884705Y-178030928D02*
X255884705Y-178173785D01*
X255884705Y-178173785D02*
X255932324Y-178269023D01*
X255932324Y-178269023D02*
X255979943Y-178316642D01*
X255979943Y-178316642D02*
X256075181Y-178364261D01*
X256075181Y-178364261D02*
X256313276Y-178364261D01*
X256313276Y-178364261D02*
X256408514Y-178316642D01*
X256408514Y-178316642D02*
X256456134Y-178269023D01*
X256456134Y-178269023D02*
X256503753Y-178173785D01*
X256503753Y-178173785D02*
X256503753Y-177888071D01*
X256503753Y-177888071D02*
X256456134Y-177792833D01*
X256456134Y-177792833D02*
X256408514Y-177745214D01*
X255503753Y-178697595D02*
X255503753Y-179316642D01*
X255503753Y-179316642D02*
X255884705Y-178983309D01*
X255884705Y-178983309D02*
X255884705Y-179126166D01*
X255884705Y-179126166D02*
X255932324Y-179221404D01*
X255932324Y-179221404D02*
X255979943Y-179269023D01*
X255979943Y-179269023D02*
X256075181Y-179316642D01*
X256075181Y-179316642D02*
X256313276Y-179316642D01*
X256313276Y-179316642D02*
X256408514Y-179269023D01*
X256408514Y-179269023D02*
X256456134Y-179221404D01*
X256456134Y-179221404D02*
X256503753Y-179126166D01*
X256503753Y-179126166D02*
X256503753Y-178840452D01*
X256503753Y-178840452D02*
X256456134Y-178745214D01*
X256456134Y-178745214D02*
X256408514Y-178697595D01*
X231711791Y-161984318D02*
X231759410Y-162031938D01*
X231759410Y-162031938D02*
X231902267Y-162079557D01*
X231902267Y-162079557D02*
X231997505Y-162079557D01*
X231997505Y-162079557D02*
X232140362Y-162031938D01*
X232140362Y-162031938D02*
X232235600Y-161936699D01*
X232235600Y-161936699D02*
X232283219Y-161841461D01*
X232283219Y-161841461D02*
X232330838Y-161650985D01*
X232330838Y-161650985D02*
X232330838Y-161508128D01*
X232330838Y-161508128D02*
X232283219Y-161317652D01*
X232283219Y-161317652D02*
X232235600Y-161222414D01*
X232235600Y-161222414D02*
X232140362Y-161127176D01*
X232140362Y-161127176D02*
X231997505Y-161079557D01*
X231997505Y-161079557D02*
X231902267Y-161079557D01*
X231902267Y-161079557D02*
X231759410Y-161127176D01*
X231759410Y-161127176D02*
X231711791Y-161174795D01*
X230807029Y-161079557D02*
X231283219Y-161079557D01*
X231283219Y-161079557D02*
X231330838Y-161555747D01*
X231330838Y-161555747D02*
X231283219Y-161508128D01*
X231283219Y-161508128D02*
X231187981Y-161460509D01*
X231187981Y-161460509D02*
X230949886Y-161460509D01*
X230949886Y-161460509D02*
X230854648Y-161508128D01*
X230854648Y-161508128D02*
X230807029Y-161555747D01*
X230807029Y-161555747D02*
X230759410Y-161650985D01*
X230759410Y-161650985D02*
X230759410Y-161889080D01*
X230759410Y-161889080D02*
X230807029Y-161984318D01*
X230807029Y-161984318D02*
X230854648Y-162031938D01*
X230854648Y-162031938D02*
X230949886Y-162079557D01*
X230949886Y-162079557D02*
X231187981Y-162079557D01*
X231187981Y-162079557D02*
X231283219Y-162031938D01*
X231283219Y-162031938D02*
X231330838Y-161984318D01*
X229854648Y-161079557D02*
X230330838Y-161079557D01*
X230330838Y-161079557D02*
X230378457Y-161555747D01*
X230378457Y-161555747D02*
X230330838Y-161508128D01*
X230330838Y-161508128D02*
X230235600Y-161460509D01*
X230235600Y-161460509D02*
X229997505Y-161460509D01*
X229997505Y-161460509D02*
X229902267Y-161508128D01*
X229902267Y-161508128D02*
X229854648Y-161555747D01*
X229854648Y-161555747D02*
X229807029Y-161650985D01*
X229807029Y-161650985D02*
X229807029Y-161889080D01*
X229807029Y-161889080D02*
X229854648Y-161984318D01*
X229854648Y-161984318D02*
X229902267Y-162031938D01*
X229902267Y-162031938D02*
X229997505Y-162079557D01*
X229997505Y-162079557D02*
X230235600Y-162079557D01*
X230235600Y-162079557D02*
X230330838Y-162031938D01*
X230330838Y-162031938D02*
X230378457Y-161984318D01*
X254353753Y-175165521D02*
X253877562Y-174832188D01*
X254353753Y-174594093D02*
X253353753Y-174594093D01*
X253353753Y-174594093D02*
X253353753Y-174975045D01*
X253353753Y-174975045D02*
X253401372Y-175070283D01*
X253401372Y-175070283D02*
X253448991Y-175117902D01*
X253448991Y-175117902D02*
X253544229Y-175165521D01*
X253544229Y-175165521D02*
X253687086Y-175165521D01*
X253687086Y-175165521D02*
X253782324Y-175117902D01*
X253782324Y-175117902D02*
X253829943Y-175070283D01*
X253829943Y-175070283D02*
X253877562Y-174975045D01*
X253877562Y-174975045D02*
X253877562Y-174594093D01*
X253353753Y-175498855D02*
X253353753Y-176117902D01*
X253353753Y-176117902D02*
X253734705Y-175784569D01*
X253734705Y-175784569D02*
X253734705Y-175927426D01*
X253734705Y-175927426D02*
X253782324Y-176022664D01*
X253782324Y-176022664D02*
X253829943Y-176070283D01*
X253829943Y-176070283D02*
X253925181Y-176117902D01*
X253925181Y-176117902D02*
X254163276Y-176117902D01*
X254163276Y-176117902D02*
X254258514Y-176070283D01*
X254258514Y-176070283D02*
X254306134Y-176022664D01*
X254306134Y-176022664D02*
X254353753Y-175927426D01*
X254353753Y-175927426D02*
X254353753Y-175641712D01*
X254353753Y-175641712D02*
X254306134Y-175546474D01*
X254306134Y-175546474D02*
X254258514Y-175498855D01*
X253687086Y-176975045D02*
X254353753Y-176975045D01*
X253306134Y-176736950D02*
X254020419Y-176498855D01*
X254020419Y-176498855D02*
X254020419Y-177117902D01*
X282885038Y-208340452D02*
X282923134Y-208302356D01*
X282923134Y-208302356D02*
X282961229Y-208188071D01*
X282961229Y-208188071D02*
X282961229Y-208111880D01*
X282961229Y-208111880D02*
X282923134Y-207997594D01*
X282923134Y-207997594D02*
X282846943Y-207921404D01*
X282846943Y-207921404D02*
X282770753Y-207883309D01*
X282770753Y-207883309D02*
X282618372Y-207845213D01*
X282618372Y-207845213D02*
X282504086Y-207845213D01*
X282504086Y-207845213D02*
X282351705Y-207883309D01*
X282351705Y-207883309D02*
X282275514Y-207921404D01*
X282275514Y-207921404D02*
X282199324Y-207997594D01*
X282199324Y-207997594D02*
X282161229Y-208111880D01*
X282161229Y-208111880D02*
X282161229Y-208188071D01*
X282161229Y-208188071D02*
X282199324Y-208302356D01*
X282199324Y-208302356D02*
X282237419Y-208340452D01*
X282427895Y-209026166D02*
X282961229Y-209026166D01*
X282123134Y-208835690D02*
X282694562Y-208645213D01*
X282694562Y-208645213D02*
X282694562Y-209140452D01*
X282161229Y-209826166D02*
X282161229Y-209445214D01*
X282161229Y-209445214D02*
X282542181Y-209407118D01*
X282542181Y-209407118D02*
X282504086Y-209445214D01*
X282504086Y-209445214D02*
X282465991Y-209521404D01*
X282465991Y-209521404D02*
X282465991Y-209711880D01*
X282465991Y-209711880D02*
X282504086Y-209788071D01*
X282504086Y-209788071D02*
X282542181Y-209826166D01*
X282542181Y-209826166D02*
X282618372Y-209864261D01*
X282618372Y-209864261D02*
X282808848Y-209864261D01*
X282808848Y-209864261D02*
X282885038Y-209826166D01*
X282885038Y-209826166D02*
X282923134Y-209788071D01*
X282923134Y-209788071D02*
X282961229Y-209711880D01*
X282961229Y-209711880D02*
X282961229Y-209521404D01*
X282961229Y-209521404D02*
X282923134Y-209445214D01*
X282923134Y-209445214D02*
X282885038Y-209407118D01*
X231791791Y-157414318D02*
X231839410Y-157461938D01*
X231839410Y-157461938D02*
X231982267Y-157509557D01*
X231982267Y-157509557D02*
X232077505Y-157509557D01*
X232077505Y-157509557D02*
X232220362Y-157461938D01*
X232220362Y-157461938D02*
X232315600Y-157366699D01*
X232315600Y-157366699D02*
X232363219Y-157271461D01*
X232363219Y-157271461D02*
X232410838Y-157080985D01*
X232410838Y-157080985D02*
X232410838Y-156938128D01*
X232410838Y-156938128D02*
X232363219Y-156747652D01*
X232363219Y-156747652D02*
X232315600Y-156652414D01*
X232315600Y-156652414D02*
X232220362Y-156557176D01*
X232220362Y-156557176D02*
X232077505Y-156509557D01*
X232077505Y-156509557D02*
X231982267Y-156509557D01*
X231982267Y-156509557D02*
X231839410Y-156557176D01*
X231839410Y-156557176D02*
X231791791Y-156604795D01*
X230887029Y-156509557D02*
X231363219Y-156509557D01*
X231363219Y-156509557D02*
X231410838Y-156985747D01*
X231410838Y-156985747D02*
X231363219Y-156938128D01*
X231363219Y-156938128D02*
X231267981Y-156890509D01*
X231267981Y-156890509D02*
X231029886Y-156890509D01*
X231029886Y-156890509D02*
X230934648Y-156938128D01*
X230934648Y-156938128D02*
X230887029Y-156985747D01*
X230887029Y-156985747D02*
X230839410Y-157080985D01*
X230839410Y-157080985D02*
X230839410Y-157319080D01*
X230839410Y-157319080D02*
X230887029Y-157414318D01*
X230887029Y-157414318D02*
X230934648Y-157461938D01*
X230934648Y-157461938D02*
X231029886Y-157509557D01*
X231029886Y-157509557D02*
X231267981Y-157509557D01*
X231267981Y-157509557D02*
X231363219Y-157461938D01*
X231363219Y-157461938D02*
X231410838Y-157414318D01*
X229982267Y-156842890D02*
X229982267Y-157509557D01*
X230220362Y-156461938D02*
X230458457Y-157176223D01*
X230458457Y-157176223D02*
X229839410Y-157176223D01*
D10*
X232723252Y-205114975D02*
X231453252Y-205114975D01*
X232602299Y-206445452D02*
X232662776Y-206384976D01*
X232662776Y-206384976D02*
X232723252Y-206203547D01*
X232723252Y-206203547D02*
X232723252Y-206082595D01*
X232723252Y-206082595D02*
X232662776Y-205901166D01*
X232662776Y-205901166D02*
X232541823Y-205780214D01*
X232541823Y-205780214D02*
X232420871Y-205719737D01*
X232420871Y-205719737D02*
X232178966Y-205659261D01*
X232178966Y-205659261D02*
X231997537Y-205659261D01*
X231997537Y-205659261D02*
X231755633Y-205719737D01*
X231755633Y-205719737D02*
X231634680Y-205780214D01*
X231634680Y-205780214D02*
X231513728Y-205901166D01*
X231513728Y-205901166D02*
X231453252Y-206082595D01*
X231453252Y-206082595D02*
X231453252Y-206203547D01*
X231453252Y-206203547D02*
X231513728Y-206384976D01*
X231513728Y-206384976D02*
X231574204Y-206445452D01*
X231453252Y-206868785D02*
X231453252Y-207654976D01*
X231453252Y-207654976D02*
X231937061Y-207231642D01*
X231937061Y-207231642D02*
X231937061Y-207413071D01*
X231937061Y-207413071D02*
X231997537Y-207534023D01*
X231997537Y-207534023D02*
X232058014Y-207594499D01*
X232058014Y-207594499D02*
X232178966Y-207654976D01*
X232178966Y-207654976D02*
X232481347Y-207654976D01*
X232481347Y-207654976D02*
X232602299Y-207594499D01*
X232602299Y-207594499D02*
X232662776Y-207534023D01*
X232662776Y-207534023D02*
X232723252Y-207413071D01*
X232723252Y-207413071D02*
X232723252Y-207050214D01*
X232723252Y-207050214D02*
X232662776Y-206929261D01*
X232662776Y-206929261D02*
X232602299Y-206868785D01*
X235607266Y-213863818D02*
X236030600Y-213863818D01*
X236030600Y-214529056D02*
X236030600Y-213259056D01*
X236030600Y-213259056D02*
X235425838Y-213259056D01*
X234518695Y-213863818D02*
X234337267Y-213924294D01*
X234337267Y-213924294D02*
X234276790Y-213984770D01*
X234276790Y-213984770D02*
X234216314Y-214105722D01*
X234216314Y-214105722D02*
X234216314Y-214287151D01*
X234216314Y-214287151D02*
X234276790Y-214408103D01*
X234276790Y-214408103D02*
X234337267Y-214468580D01*
X234337267Y-214468580D02*
X234458219Y-214529056D01*
X234458219Y-214529056D02*
X234942029Y-214529056D01*
X234942029Y-214529056D02*
X234942029Y-213259056D01*
X234942029Y-213259056D02*
X234518695Y-213259056D01*
X234518695Y-213259056D02*
X234397743Y-213319532D01*
X234397743Y-213319532D02*
X234337267Y-213380008D01*
X234337267Y-213380008D02*
X234276790Y-213500960D01*
X234276790Y-213500960D02*
X234276790Y-213621913D01*
X234276790Y-213621913D02*
X234337267Y-213742865D01*
X234337267Y-213742865D02*
X234397743Y-213803341D01*
X234397743Y-213803341D02*
X234518695Y-213863818D01*
X234518695Y-213863818D02*
X234942029Y-213863818D01*
X233006790Y-214529056D02*
X233732505Y-214529056D01*
X233369648Y-214529056D02*
X233369648Y-213259056D01*
X233369648Y-213259056D02*
X233490600Y-213440484D01*
X233490600Y-213440484D02*
X233611552Y-213561437D01*
X233611552Y-213561437D02*
X233732505Y-213621913D01*
X277007266Y-214813818D02*
X277430600Y-214813818D01*
X277430600Y-215479056D02*
X277430600Y-214209056D01*
X277430600Y-214209056D02*
X276825838Y-214209056D01*
X275918695Y-214813818D02*
X275737267Y-214874294D01*
X275737267Y-214874294D02*
X275676790Y-214934770D01*
X275676790Y-214934770D02*
X275616314Y-215055722D01*
X275616314Y-215055722D02*
X275616314Y-215237151D01*
X275616314Y-215237151D02*
X275676790Y-215358103D01*
X275676790Y-215358103D02*
X275737267Y-215418580D01*
X275737267Y-215418580D02*
X275858219Y-215479056D01*
X275858219Y-215479056D02*
X276342029Y-215479056D01*
X276342029Y-215479056D02*
X276342029Y-214209056D01*
X276342029Y-214209056D02*
X275918695Y-214209056D01*
X275918695Y-214209056D02*
X275797743Y-214269532D01*
X275797743Y-214269532D02*
X275737267Y-214330008D01*
X275737267Y-214330008D02*
X275676790Y-214450960D01*
X275676790Y-214450960D02*
X275676790Y-214571913D01*
X275676790Y-214571913D02*
X275737267Y-214692865D01*
X275737267Y-214692865D02*
X275797743Y-214753341D01*
X275797743Y-214753341D02*
X275918695Y-214813818D01*
X275918695Y-214813818D02*
X276342029Y-214813818D01*
X275132505Y-214330008D02*
X275072029Y-214269532D01*
X275072029Y-214269532D02*
X274951076Y-214209056D01*
X274951076Y-214209056D02*
X274648695Y-214209056D01*
X274648695Y-214209056D02*
X274527743Y-214269532D01*
X274527743Y-214269532D02*
X274467267Y-214330008D01*
X274467267Y-214330008D02*
X274406790Y-214450960D01*
X274406790Y-214450960D02*
X274406790Y-214571913D01*
X274406790Y-214571913D02*
X274467267Y-214753341D01*
X274467267Y-214753341D02*
X275192981Y-215479056D01*
X275192981Y-215479056D02*
X274406790Y-215479056D01*
D11*
X233541791Y-209464318D02*
X233589410Y-209511938D01*
X233589410Y-209511938D02*
X233732267Y-209559557D01*
X233732267Y-209559557D02*
X233827505Y-209559557D01*
X233827505Y-209559557D02*
X233970362Y-209511938D01*
X233970362Y-209511938D02*
X234065600Y-209416699D01*
X234065600Y-209416699D02*
X234113219Y-209321461D01*
X234113219Y-209321461D02*
X234160838Y-209130985D01*
X234160838Y-209130985D02*
X234160838Y-208988128D01*
X234160838Y-208988128D02*
X234113219Y-208797652D01*
X234113219Y-208797652D02*
X234065600Y-208702414D01*
X234065600Y-208702414D02*
X233970362Y-208607176D01*
X233970362Y-208607176D02*
X233827505Y-208559557D01*
X233827505Y-208559557D02*
X233732267Y-208559557D01*
X233732267Y-208559557D02*
X233589410Y-208607176D01*
X233589410Y-208607176D02*
X233541791Y-208654795D01*
X233160838Y-208654795D02*
X233113219Y-208607176D01*
X233113219Y-208607176D02*
X233017981Y-208559557D01*
X233017981Y-208559557D02*
X232779886Y-208559557D01*
X232779886Y-208559557D02*
X232684648Y-208607176D01*
X232684648Y-208607176D02*
X232637029Y-208654795D01*
X232637029Y-208654795D02*
X232589410Y-208750033D01*
X232589410Y-208750033D02*
X232589410Y-208845271D01*
X232589410Y-208845271D02*
X232637029Y-208988128D01*
X232637029Y-208988128D02*
X233208457Y-209559557D01*
X233208457Y-209559557D02*
X232589410Y-209559557D01*
X231732267Y-208892890D02*
X231732267Y-209559557D01*
X231970362Y-208511938D02*
X232208457Y-209226223D01*
X232208457Y-209226223D02*
X231589410Y-209226223D01*
X254903753Y-182211880D02*
X254427562Y-181878547D01*
X254903753Y-181640452D02*
X253903753Y-181640452D01*
X253903753Y-181640452D02*
X253903753Y-182021404D01*
X253903753Y-182021404D02*
X253951372Y-182116642D01*
X253951372Y-182116642D02*
X253998991Y-182164261D01*
X253998991Y-182164261D02*
X254094229Y-182211880D01*
X254094229Y-182211880D02*
X254237086Y-182211880D01*
X254237086Y-182211880D02*
X254332324Y-182164261D01*
X254332324Y-182164261D02*
X254379943Y-182116642D01*
X254379943Y-182116642D02*
X254427562Y-182021404D01*
X254427562Y-182021404D02*
X254427562Y-181640452D01*
X253998991Y-182592833D02*
X253951372Y-182640452D01*
X253951372Y-182640452D02*
X253903753Y-182735690D01*
X253903753Y-182735690D02*
X253903753Y-182973785D01*
X253903753Y-182973785D02*
X253951372Y-183069023D01*
X253951372Y-183069023D02*
X253998991Y-183116642D01*
X253998991Y-183116642D02*
X254094229Y-183164261D01*
X254094229Y-183164261D02*
X254189467Y-183164261D01*
X254189467Y-183164261D02*
X254332324Y-183116642D01*
X254332324Y-183116642D02*
X254903753Y-182545214D01*
X254903753Y-182545214D02*
X254903753Y-183164261D01*
X253903753Y-183497595D02*
X253903753Y-184164261D01*
X253903753Y-184164261D02*
X254903753Y-183735690D01*
X224991791Y-158864318D02*
X225039410Y-158911938D01*
X225039410Y-158911938D02*
X225182267Y-158959557D01*
X225182267Y-158959557D02*
X225277505Y-158959557D01*
X225277505Y-158959557D02*
X225420362Y-158911938D01*
X225420362Y-158911938D02*
X225515600Y-158816699D01*
X225515600Y-158816699D02*
X225563219Y-158721461D01*
X225563219Y-158721461D02*
X225610838Y-158530985D01*
X225610838Y-158530985D02*
X225610838Y-158388128D01*
X225610838Y-158388128D02*
X225563219Y-158197652D01*
X225563219Y-158197652D02*
X225515600Y-158102414D01*
X225515600Y-158102414D02*
X225420362Y-158007176D01*
X225420362Y-158007176D02*
X225277505Y-157959557D01*
X225277505Y-157959557D02*
X225182267Y-157959557D01*
X225182267Y-157959557D02*
X225039410Y-158007176D01*
X225039410Y-158007176D02*
X224991791Y-158054795D01*
X224087029Y-157959557D02*
X224563219Y-157959557D01*
X224563219Y-157959557D02*
X224610838Y-158435747D01*
X224610838Y-158435747D02*
X224563219Y-158388128D01*
X224563219Y-158388128D02*
X224467981Y-158340509D01*
X224467981Y-158340509D02*
X224229886Y-158340509D01*
X224229886Y-158340509D02*
X224134648Y-158388128D01*
X224134648Y-158388128D02*
X224087029Y-158435747D01*
X224087029Y-158435747D02*
X224039410Y-158530985D01*
X224039410Y-158530985D02*
X224039410Y-158769080D01*
X224039410Y-158769080D02*
X224087029Y-158864318D01*
X224087029Y-158864318D02*
X224134648Y-158911938D01*
X224134648Y-158911938D02*
X224229886Y-158959557D01*
X224229886Y-158959557D02*
X224467981Y-158959557D01*
X224467981Y-158959557D02*
X224563219Y-158911938D01*
X224563219Y-158911938D02*
X224610838Y-158864318D01*
X223658457Y-158054795D02*
X223610838Y-158007176D01*
X223610838Y-158007176D02*
X223515600Y-157959557D01*
X223515600Y-157959557D02*
X223277505Y-157959557D01*
X223277505Y-157959557D02*
X223182267Y-158007176D01*
X223182267Y-158007176D02*
X223134648Y-158054795D01*
X223134648Y-158054795D02*
X223087029Y-158150033D01*
X223087029Y-158150033D02*
X223087029Y-158245271D01*
X223087029Y-158245271D02*
X223134648Y-158388128D01*
X223134648Y-158388128D02*
X223706076Y-158959557D01*
X223706076Y-158959557D02*
X223087029Y-158959557D01*
X282708514Y-214511880D02*
X282756134Y-214464261D01*
X282756134Y-214464261D02*
X282803753Y-214321404D01*
X282803753Y-214321404D02*
X282803753Y-214226166D01*
X282803753Y-214226166D02*
X282756134Y-214083309D01*
X282756134Y-214083309D02*
X282660895Y-213988071D01*
X282660895Y-213988071D02*
X282565657Y-213940452D01*
X282565657Y-213940452D02*
X282375181Y-213892833D01*
X282375181Y-213892833D02*
X282232324Y-213892833D01*
X282232324Y-213892833D02*
X282041848Y-213940452D01*
X282041848Y-213940452D02*
X281946610Y-213988071D01*
X281946610Y-213988071D02*
X281851372Y-214083309D01*
X281851372Y-214083309D02*
X281803753Y-214226166D01*
X281803753Y-214226166D02*
X281803753Y-214321404D01*
X281803753Y-214321404D02*
X281851372Y-214464261D01*
X281851372Y-214464261D02*
X281898991Y-214511880D01*
X282137086Y-215369023D02*
X282803753Y-215369023D01*
X281756134Y-215130928D02*
X282470419Y-214892833D01*
X282470419Y-214892833D02*
X282470419Y-215511880D01*
X281803753Y-216321404D02*
X281803753Y-216130928D01*
X281803753Y-216130928D02*
X281851372Y-216035690D01*
X281851372Y-216035690D02*
X281898991Y-215988071D01*
X281898991Y-215988071D02*
X282041848Y-215892833D01*
X282041848Y-215892833D02*
X282232324Y-215845214D01*
X282232324Y-215845214D02*
X282613276Y-215845214D01*
X282613276Y-215845214D02*
X282708514Y-215892833D01*
X282708514Y-215892833D02*
X282756134Y-215940452D01*
X282756134Y-215940452D02*
X282803753Y-216035690D01*
X282803753Y-216035690D02*
X282803753Y-216226166D01*
X282803753Y-216226166D02*
X282756134Y-216321404D01*
X282756134Y-216321404D02*
X282708514Y-216369023D01*
X282708514Y-216369023D02*
X282613276Y-216416642D01*
X282613276Y-216416642D02*
X282375181Y-216416642D01*
X282375181Y-216416642D02*
X282279943Y-216369023D01*
X282279943Y-216369023D02*
X282232324Y-216321404D01*
X282232324Y-216321404D02*
X282184705Y-216226166D01*
X282184705Y-216226166D02*
X282184705Y-216035690D01*
X282184705Y-216035690D02*
X282232324Y-215940452D01*
X282232324Y-215940452D02*
X282279943Y-215892833D01*
X282279943Y-215892833D02*
X282375181Y-215845214D01*
D10*
X231023252Y-153364975D02*
X229753252Y-153364975D01*
X230902299Y-154695452D02*
X230962776Y-154634976D01*
X230962776Y-154634976D02*
X231023252Y-154453547D01*
X231023252Y-154453547D02*
X231023252Y-154332595D01*
X231023252Y-154332595D02*
X230962776Y-154151166D01*
X230962776Y-154151166D02*
X230841823Y-154030214D01*
X230841823Y-154030214D02*
X230720871Y-153969737D01*
X230720871Y-153969737D02*
X230478966Y-153909261D01*
X230478966Y-153909261D02*
X230297537Y-153909261D01*
X230297537Y-153909261D02*
X230055633Y-153969737D01*
X230055633Y-153969737D02*
X229934680Y-154030214D01*
X229934680Y-154030214D02*
X229813728Y-154151166D01*
X229813728Y-154151166D02*
X229753252Y-154332595D01*
X229753252Y-154332595D02*
X229753252Y-154453547D01*
X229753252Y-154453547D02*
X229813728Y-154634976D01*
X229813728Y-154634976D02*
X229874204Y-154695452D01*
X231023252Y-155300214D02*
X231023252Y-155542118D01*
X231023252Y-155542118D02*
X230962776Y-155663071D01*
X230962776Y-155663071D02*
X230902299Y-155723547D01*
X230902299Y-155723547D02*
X230720871Y-155844499D01*
X230720871Y-155844499D02*
X230478966Y-155904976D01*
X230478966Y-155904976D02*
X229995156Y-155904976D01*
X229995156Y-155904976D02*
X229874204Y-155844499D01*
X229874204Y-155844499D02*
X229813728Y-155784023D01*
X229813728Y-155784023D02*
X229753252Y-155663071D01*
X229753252Y-155663071D02*
X229753252Y-155421166D01*
X229753252Y-155421166D02*
X229813728Y-155300214D01*
X229813728Y-155300214D02*
X229874204Y-155239737D01*
X229874204Y-155239737D02*
X229995156Y-155179261D01*
X229995156Y-155179261D02*
X230297537Y-155179261D01*
X230297537Y-155179261D02*
X230418490Y-155239737D01*
X230418490Y-155239737D02*
X230478966Y-155300214D01*
X230478966Y-155300214D02*
X230539442Y-155421166D01*
X230539442Y-155421166D02*
X230539442Y-155663071D01*
X230539442Y-155663071D02*
X230478966Y-155784023D01*
X230478966Y-155784023D02*
X230418490Y-155844499D01*
X230418490Y-155844499D02*
X230297537Y-155904976D01*
D11*
X277308514Y-209911880D02*
X277356134Y-209864261D01*
X277356134Y-209864261D02*
X277403753Y-209721404D01*
X277403753Y-209721404D02*
X277403753Y-209626166D01*
X277403753Y-209626166D02*
X277356134Y-209483309D01*
X277356134Y-209483309D02*
X277260895Y-209388071D01*
X277260895Y-209388071D02*
X277165657Y-209340452D01*
X277165657Y-209340452D02*
X276975181Y-209292833D01*
X276975181Y-209292833D02*
X276832324Y-209292833D01*
X276832324Y-209292833D02*
X276641848Y-209340452D01*
X276641848Y-209340452D02*
X276546610Y-209388071D01*
X276546610Y-209388071D02*
X276451372Y-209483309D01*
X276451372Y-209483309D02*
X276403753Y-209626166D01*
X276403753Y-209626166D02*
X276403753Y-209721404D01*
X276403753Y-209721404D02*
X276451372Y-209864261D01*
X276451372Y-209864261D02*
X276498991Y-209911880D01*
X276737086Y-210769023D02*
X277403753Y-210769023D01*
X276356134Y-210530928D02*
X277070419Y-210292833D01*
X277070419Y-210292833D02*
X277070419Y-210911880D01*
X276403753Y-211197595D02*
X276403753Y-211864261D01*
X276403753Y-211864261D02*
X277403753Y-211435690D01*
X244015600Y-186909557D02*
X244348933Y-186433366D01*
X244587028Y-186909557D02*
X244587028Y-185909557D01*
X244587028Y-185909557D02*
X244206076Y-185909557D01*
X244206076Y-185909557D02*
X244110838Y-185957176D01*
X244110838Y-185957176D02*
X244063219Y-186004795D01*
X244063219Y-186004795D02*
X244015600Y-186100033D01*
X244015600Y-186100033D02*
X244015600Y-186242890D01*
X244015600Y-186242890D02*
X244063219Y-186338128D01*
X244063219Y-186338128D02*
X244110838Y-186385747D01*
X244110838Y-186385747D02*
X244206076Y-186433366D01*
X244206076Y-186433366D02*
X244587028Y-186433366D01*
X243682266Y-185909557D02*
X243063219Y-185909557D01*
X243063219Y-185909557D02*
X243396552Y-186290509D01*
X243396552Y-186290509D02*
X243253695Y-186290509D01*
X243253695Y-186290509D02*
X243158457Y-186338128D01*
X243158457Y-186338128D02*
X243110838Y-186385747D01*
X243110838Y-186385747D02*
X243063219Y-186480985D01*
X243063219Y-186480985D02*
X243063219Y-186719080D01*
X243063219Y-186719080D02*
X243110838Y-186814318D01*
X243110838Y-186814318D02*
X243158457Y-186861938D01*
X243158457Y-186861938D02*
X243253695Y-186909557D01*
X243253695Y-186909557D02*
X243539409Y-186909557D01*
X243539409Y-186909557D02*
X243634647Y-186861938D01*
X243634647Y-186861938D02*
X243682266Y-186814318D01*
X230791791Y-214914318D02*
X230839410Y-214961938D01*
X230839410Y-214961938D02*
X230982267Y-215009557D01*
X230982267Y-215009557D02*
X231077505Y-215009557D01*
X231077505Y-215009557D02*
X231220362Y-214961938D01*
X231220362Y-214961938D02*
X231315600Y-214866699D01*
X231315600Y-214866699D02*
X231363219Y-214771461D01*
X231363219Y-214771461D02*
X231410838Y-214580985D01*
X231410838Y-214580985D02*
X231410838Y-214438128D01*
X231410838Y-214438128D02*
X231363219Y-214247652D01*
X231363219Y-214247652D02*
X231315600Y-214152414D01*
X231315600Y-214152414D02*
X231220362Y-214057176D01*
X231220362Y-214057176D02*
X231077505Y-214009557D01*
X231077505Y-214009557D02*
X230982267Y-214009557D01*
X230982267Y-214009557D02*
X230839410Y-214057176D01*
X230839410Y-214057176D02*
X230791791Y-214104795D01*
X230410838Y-214104795D02*
X230363219Y-214057176D01*
X230363219Y-214057176D02*
X230267981Y-214009557D01*
X230267981Y-214009557D02*
X230029886Y-214009557D01*
X230029886Y-214009557D02*
X229934648Y-214057176D01*
X229934648Y-214057176D02*
X229887029Y-214104795D01*
X229887029Y-214104795D02*
X229839410Y-214200033D01*
X229839410Y-214200033D02*
X229839410Y-214295271D01*
X229839410Y-214295271D02*
X229887029Y-214438128D01*
X229887029Y-214438128D02*
X230458457Y-215009557D01*
X230458457Y-215009557D02*
X229839410Y-215009557D01*
X228934648Y-214009557D02*
X229410838Y-214009557D01*
X229410838Y-214009557D02*
X229458457Y-214485747D01*
X229458457Y-214485747D02*
X229410838Y-214438128D01*
X229410838Y-214438128D02*
X229315600Y-214390509D01*
X229315600Y-214390509D02*
X229077505Y-214390509D01*
X229077505Y-214390509D02*
X228982267Y-214438128D01*
X228982267Y-214438128D02*
X228934648Y-214485747D01*
X228934648Y-214485747D02*
X228887029Y-214580985D01*
X228887029Y-214580985D02*
X228887029Y-214819080D01*
X228887029Y-214819080D02*
X228934648Y-214914318D01*
X228934648Y-214914318D02*
X228982267Y-214961938D01*
X228982267Y-214961938D02*
X229077505Y-215009557D01*
X229077505Y-215009557D02*
X229315600Y-215009557D01*
X229315600Y-215009557D02*
X229410838Y-214961938D01*
X229410838Y-214961938D02*
X229458457Y-214914318D01*
X281785038Y-208340452D02*
X281823134Y-208302356D01*
X281823134Y-208302356D02*
X281861229Y-208188071D01*
X281861229Y-208188071D02*
X281861229Y-208111880D01*
X281861229Y-208111880D02*
X281823134Y-207997594D01*
X281823134Y-207997594D02*
X281746943Y-207921404D01*
X281746943Y-207921404D02*
X281670753Y-207883309D01*
X281670753Y-207883309D02*
X281518372Y-207845213D01*
X281518372Y-207845213D02*
X281404086Y-207845213D01*
X281404086Y-207845213D02*
X281251705Y-207883309D01*
X281251705Y-207883309D02*
X281175514Y-207921404D01*
X281175514Y-207921404D02*
X281099324Y-207997594D01*
X281099324Y-207997594D02*
X281061229Y-208111880D01*
X281061229Y-208111880D02*
X281061229Y-208188071D01*
X281061229Y-208188071D02*
X281099324Y-208302356D01*
X281099324Y-208302356D02*
X281137419Y-208340452D01*
X281327895Y-209026166D02*
X281861229Y-209026166D01*
X281023134Y-208835690D02*
X281594562Y-208645213D01*
X281594562Y-208645213D02*
X281594562Y-209140452D01*
X281327895Y-209788071D02*
X281861229Y-209788071D01*
X281023134Y-209597595D02*
X281594562Y-209407118D01*
X281594562Y-209407118D02*
X281594562Y-209902357D01*
X270203753Y-161051880D02*
X269727562Y-160718547D01*
X270203753Y-160480452D02*
X269203753Y-160480452D01*
X269203753Y-160480452D02*
X269203753Y-160861404D01*
X269203753Y-160861404D02*
X269251372Y-160956642D01*
X269251372Y-160956642D02*
X269298991Y-161004261D01*
X269298991Y-161004261D02*
X269394229Y-161051880D01*
X269394229Y-161051880D02*
X269537086Y-161051880D01*
X269537086Y-161051880D02*
X269632324Y-161004261D01*
X269632324Y-161004261D02*
X269679943Y-160956642D01*
X269679943Y-160956642D02*
X269727562Y-160861404D01*
X269727562Y-160861404D02*
X269727562Y-160480452D01*
X269203753Y-161385214D02*
X269203753Y-162004261D01*
X269203753Y-162004261D02*
X269584705Y-161670928D01*
X269584705Y-161670928D02*
X269584705Y-161813785D01*
X269584705Y-161813785D02*
X269632324Y-161909023D01*
X269632324Y-161909023D02*
X269679943Y-161956642D01*
X269679943Y-161956642D02*
X269775181Y-162004261D01*
X269775181Y-162004261D02*
X270013276Y-162004261D01*
X270013276Y-162004261D02*
X270108514Y-161956642D01*
X270108514Y-161956642D02*
X270156134Y-161909023D01*
X270156134Y-161909023D02*
X270203753Y-161813785D01*
X270203753Y-161813785D02*
X270203753Y-161528071D01*
X270203753Y-161528071D02*
X270156134Y-161432833D01*
X270156134Y-161432833D02*
X270108514Y-161385214D01*
X269203753Y-162337595D02*
X269203753Y-163004261D01*
X269203753Y-163004261D02*
X270203753Y-162575690D01*
X294523753Y-171136880D02*
X294047562Y-170803547D01*
X294523753Y-170565452D02*
X293523753Y-170565452D01*
X293523753Y-170565452D02*
X293523753Y-170946404D01*
X293523753Y-170946404D02*
X293571372Y-171041642D01*
X293571372Y-171041642D02*
X293618991Y-171089261D01*
X293618991Y-171089261D02*
X293714229Y-171136880D01*
X293714229Y-171136880D02*
X293857086Y-171136880D01*
X293857086Y-171136880D02*
X293952324Y-171089261D01*
X293952324Y-171089261D02*
X293999943Y-171041642D01*
X293999943Y-171041642D02*
X294047562Y-170946404D01*
X294047562Y-170946404D02*
X294047562Y-170565452D01*
X293523753Y-171470214D02*
X293523753Y-172089261D01*
X293523753Y-172089261D02*
X293904705Y-171755928D01*
X293904705Y-171755928D02*
X293904705Y-171898785D01*
X293904705Y-171898785D02*
X293952324Y-171994023D01*
X293952324Y-171994023D02*
X293999943Y-172041642D01*
X293999943Y-172041642D02*
X294095181Y-172089261D01*
X294095181Y-172089261D02*
X294333276Y-172089261D01*
X294333276Y-172089261D02*
X294428514Y-172041642D01*
X294428514Y-172041642D02*
X294476134Y-171994023D01*
X294476134Y-171994023D02*
X294523753Y-171898785D01*
X294523753Y-171898785D02*
X294523753Y-171613071D01*
X294523753Y-171613071D02*
X294476134Y-171517833D01*
X294476134Y-171517833D02*
X294428514Y-171470214D01*
X294523753Y-172565452D02*
X294523753Y-172755928D01*
X294523753Y-172755928D02*
X294476134Y-172851166D01*
X294476134Y-172851166D02*
X294428514Y-172898785D01*
X294428514Y-172898785D02*
X294285657Y-172994023D01*
X294285657Y-172994023D02*
X294095181Y-173041642D01*
X294095181Y-173041642D02*
X293714229Y-173041642D01*
X293714229Y-173041642D02*
X293618991Y-172994023D01*
X293618991Y-172994023D02*
X293571372Y-172946404D01*
X293571372Y-172946404D02*
X293523753Y-172851166D01*
X293523753Y-172851166D02*
X293523753Y-172660690D01*
X293523753Y-172660690D02*
X293571372Y-172565452D01*
X293571372Y-172565452D02*
X293618991Y-172517833D01*
X293618991Y-172517833D02*
X293714229Y-172470214D01*
X293714229Y-172470214D02*
X293952324Y-172470214D01*
X293952324Y-172470214D02*
X294047562Y-172517833D01*
X294047562Y-172517833D02*
X294095181Y-172565452D01*
X294095181Y-172565452D02*
X294142800Y-172660690D01*
X294142800Y-172660690D02*
X294142800Y-172851166D01*
X294142800Y-172851166D02*
X294095181Y-172946404D01*
X294095181Y-172946404D02*
X294047562Y-172994023D01*
X294047562Y-172994023D02*
X293952324Y-173041642D01*
D10*
X219808014Y-161246405D02*
X219808014Y-160823071D01*
X220473252Y-160823071D02*
X219203252Y-160823071D01*
X219203252Y-160823071D02*
X219203252Y-161427833D01*
X219808014Y-162334976D02*
X219868490Y-162516404D01*
X219868490Y-162516404D02*
X219928966Y-162576881D01*
X219928966Y-162576881D02*
X220049918Y-162637357D01*
X220049918Y-162637357D02*
X220231347Y-162637357D01*
X220231347Y-162637357D02*
X220352299Y-162576881D01*
X220352299Y-162576881D02*
X220412776Y-162516404D01*
X220412776Y-162516404D02*
X220473252Y-162395452D01*
X220473252Y-162395452D02*
X220473252Y-161911642D01*
X220473252Y-161911642D02*
X219203252Y-161911642D01*
X219203252Y-161911642D02*
X219203252Y-162334976D01*
X219203252Y-162334976D02*
X219263728Y-162455928D01*
X219263728Y-162455928D02*
X219324204Y-162516404D01*
X219324204Y-162516404D02*
X219445156Y-162576881D01*
X219445156Y-162576881D02*
X219566109Y-162576881D01*
X219566109Y-162576881D02*
X219687061Y-162516404D01*
X219687061Y-162516404D02*
X219747537Y-162455928D01*
X219747537Y-162455928D02*
X219808014Y-162334976D01*
X219808014Y-162334976D02*
X219808014Y-161911642D01*
X219203252Y-163060690D02*
X219203252Y-163846881D01*
X219203252Y-163846881D02*
X219687061Y-163423547D01*
X219687061Y-163423547D02*
X219687061Y-163604976D01*
X219687061Y-163604976D02*
X219747537Y-163725928D01*
X219747537Y-163725928D02*
X219808014Y-163786404D01*
X219808014Y-163786404D02*
X219928966Y-163846881D01*
X219928966Y-163846881D02*
X220231347Y-163846881D01*
X220231347Y-163846881D02*
X220352299Y-163786404D01*
X220352299Y-163786404D02*
X220412776Y-163725928D01*
X220412776Y-163725928D02*
X220473252Y-163604976D01*
X220473252Y-163604976D02*
X220473252Y-163242119D01*
X220473252Y-163242119D02*
X220412776Y-163121166D01*
X220412776Y-163121166D02*
X220352299Y-163060690D01*
D11*
X257853753Y-176311880D02*
X257377562Y-175978547D01*
X257853753Y-175740452D02*
X256853753Y-175740452D01*
X256853753Y-175740452D02*
X256853753Y-176121404D01*
X256853753Y-176121404D02*
X256901372Y-176216642D01*
X256901372Y-176216642D02*
X256948991Y-176264261D01*
X256948991Y-176264261D02*
X257044229Y-176311880D01*
X257044229Y-176311880D02*
X257187086Y-176311880D01*
X257187086Y-176311880D02*
X257282324Y-176264261D01*
X257282324Y-176264261D02*
X257329943Y-176216642D01*
X257329943Y-176216642D02*
X257377562Y-176121404D01*
X257377562Y-176121404D02*
X257377562Y-175740452D01*
X256948991Y-176692833D02*
X256901372Y-176740452D01*
X256901372Y-176740452D02*
X256853753Y-176835690D01*
X256853753Y-176835690D02*
X256853753Y-177073785D01*
X256853753Y-177073785D02*
X256901372Y-177169023D01*
X256901372Y-177169023D02*
X256948991Y-177216642D01*
X256948991Y-177216642D02*
X257044229Y-177264261D01*
X257044229Y-177264261D02*
X257139467Y-177264261D01*
X257139467Y-177264261D02*
X257282324Y-177216642D01*
X257282324Y-177216642D02*
X257853753Y-176645214D01*
X257853753Y-176645214D02*
X257853753Y-177264261D01*
X257853753Y-177740452D02*
X257853753Y-177930928D01*
X257853753Y-177930928D02*
X257806134Y-178026166D01*
X257806134Y-178026166D02*
X257758514Y-178073785D01*
X257758514Y-178073785D02*
X257615657Y-178169023D01*
X257615657Y-178169023D02*
X257425181Y-178216642D01*
X257425181Y-178216642D02*
X257044229Y-178216642D01*
X257044229Y-178216642D02*
X256948991Y-178169023D01*
X256948991Y-178169023D02*
X256901372Y-178121404D01*
X256901372Y-178121404D02*
X256853753Y-178026166D01*
X256853753Y-178026166D02*
X256853753Y-177835690D01*
X256853753Y-177835690D02*
X256901372Y-177740452D01*
X256901372Y-177740452D02*
X256948991Y-177692833D01*
X256948991Y-177692833D02*
X257044229Y-177645214D01*
X257044229Y-177645214D02*
X257282324Y-177645214D01*
X257282324Y-177645214D02*
X257377562Y-177692833D01*
X257377562Y-177692833D02*
X257425181Y-177740452D01*
X257425181Y-177740452D02*
X257472800Y-177835690D01*
X257472800Y-177835690D02*
X257472800Y-178026166D01*
X257472800Y-178026166D02*
X257425181Y-178121404D01*
X257425181Y-178121404D02*
X257377562Y-178169023D01*
X257377562Y-178169023D02*
X257282324Y-178216642D01*
X226041791Y-204409557D02*
X226375124Y-203933366D01*
X226613219Y-204409557D02*
X226613219Y-203409557D01*
X226613219Y-203409557D02*
X226232267Y-203409557D01*
X226232267Y-203409557D02*
X226137029Y-203457176D01*
X226137029Y-203457176D02*
X226089410Y-203504795D01*
X226089410Y-203504795D02*
X226041791Y-203600033D01*
X226041791Y-203600033D02*
X226041791Y-203742890D01*
X226041791Y-203742890D02*
X226089410Y-203838128D01*
X226089410Y-203838128D02*
X226137029Y-203885747D01*
X226137029Y-203885747D02*
X226232267Y-203933366D01*
X226232267Y-203933366D02*
X226613219Y-203933366D01*
X225708457Y-203409557D02*
X225089410Y-203409557D01*
X225089410Y-203409557D02*
X225422743Y-203790509D01*
X225422743Y-203790509D02*
X225279886Y-203790509D01*
X225279886Y-203790509D02*
X225184648Y-203838128D01*
X225184648Y-203838128D02*
X225137029Y-203885747D01*
X225137029Y-203885747D02*
X225089410Y-203980985D01*
X225089410Y-203980985D02*
X225089410Y-204219080D01*
X225089410Y-204219080D02*
X225137029Y-204314318D01*
X225137029Y-204314318D02*
X225184648Y-204361938D01*
X225184648Y-204361938D02*
X225279886Y-204409557D01*
X225279886Y-204409557D02*
X225565600Y-204409557D01*
X225565600Y-204409557D02*
X225660838Y-204361938D01*
X225660838Y-204361938D02*
X225708457Y-204314318D01*
X224184648Y-203409557D02*
X224660838Y-203409557D01*
X224660838Y-203409557D02*
X224708457Y-203885747D01*
X224708457Y-203885747D02*
X224660838Y-203838128D01*
X224660838Y-203838128D02*
X224565600Y-203790509D01*
X224565600Y-203790509D02*
X224327505Y-203790509D01*
X224327505Y-203790509D02*
X224232267Y-203838128D01*
X224232267Y-203838128D02*
X224184648Y-203885747D01*
X224184648Y-203885747D02*
X224137029Y-203980985D01*
X224137029Y-203980985D02*
X224137029Y-204219080D01*
X224137029Y-204219080D02*
X224184648Y-204314318D01*
X224184648Y-204314318D02*
X224232267Y-204361938D01*
X224232267Y-204361938D02*
X224327505Y-204409557D01*
X224327505Y-204409557D02*
X224565600Y-204409557D01*
X224565600Y-204409557D02*
X224660838Y-204361938D01*
X224660838Y-204361938D02*
X224708457Y-204314318D01*
X260403753Y-174161880D02*
X259927562Y-173828547D01*
X260403753Y-173590452D02*
X259403753Y-173590452D01*
X259403753Y-173590452D02*
X259403753Y-173971404D01*
X259403753Y-173971404D02*
X259451372Y-174066642D01*
X259451372Y-174066642D02*
X259498991Y-174114261D01*
X259498991Y-174114261D02*
X259594229Y-174161880D01*
X259594229Y-174161880D02*
X259737086Y-174161880D01*
X259737086Y-174161880D02*
X259832324Y-174114261D01*
X259832324Y-174114261D02*
X259879943Y-174066642D01*
X259879943Y-174066642D02*
X259927562Y-173971404D01*
X259927562Y-173971404D02*
X259927562Y-173590452D01*
X259403753Y-174495214D02*
X259403753Y-175114261D01*
X259403753Y-175114261D02*
X259784705Y-174780928D01*
X259784705Y-174780928D02*
X259784705Y-174923785D01*
X259784705Y-174923785D02*
X259832324Y-175019023D01*
X259832324Y-175019023D02*
X259879943Y-175066642D01*
X259879943Y-175066642D02*
X259975181Y-175114261D01*
X259975181Y-175114261D02*
X260213276Y-175114261D01*
X260213276Y-175114261D02*
X260308514Y-175066642D01*
X260308514Y-175066642D02*
X260356134Y-175019023D01*
X260356134Y-175019023D02*
X260403753Y-174923785D01*
X260403753Y-174923785D02*
X260403753Y-174638071D01*
X260403753Y-174638071D02*
X260356134Y-174542833D01*
X260356134Y-174542833D02*
X260308514Y-174495214D01*
X259403753Y-175733309D02*
X259403753Y-175828547D01*
X259403753Y-175828547D02*
X259451372Y-175923785D01*
X259451372Y-175923785D02*
X259498991Y-175971404D01*
X259498991Y-175971404D02*
X259594229Y-176019023D01*
X259594229Y-176019023D02*
X259784705Y-176066642D01*
X259784705Y-176066642D02*
X260022800Y-176066642D01*
X260022800Y-176066642D02*
X260213276Y-176019023D01*
X260213276Y-176019023D02*
X260308514Y-175971404D01*
X260308514Y-175971404D02*
X260356134Y-175923785D01*
X260356134Y-175923785D02*
X260403753Y-175828547D01*
X260403753Y-175828547D02*
X260403753Y-175733309D01*
X260403753Y-175733309D02*
X260356134Y-175638071D01*
X260356134Y-175638071D02*
X260308514Y-175590452D01*
X260308514Y-175590452D02*
X260213276Y-175542833D01*
X260213276Y-175542833D02*
X260022800Y-175495214D01*
X260022800Y-175495214D02*
X259784705Y-175495214D01*
X259784705Y-175495214D02*
X259594229Y-175542833D01*
X259594229Y-175542833D02*
X259498991Y-175590452D01*
X259498991Y-175590452D02*
X259451372Y-175638071D01*
X259451372Y-175638071D02*
X259403753Y-175733309D01*
X291023753Y-177861880D02*
X290547562Y-177528547D01*
X291023753Y-177290452D02*
X290023753Y-177290452D01*
X290023753Y-177290452D02*
X290023753Y-177671404D01*
X290023753Y-177671404D02*
X290071372Y-177766642D01*
X290071372Y-177766642D02*
X290118991Y-177814261D01*
X290118991Y-177814261D02*
X290214229Y-177861880D01*
X290214229Y-177861880D02*
X290357086Y-177861880D01*
X290357086Y-177861880D02*
X290452324Y-177814261D01*
X290452324Y-177814261D02*
X290499943Y-177766642D01*
X290499943Y-177766642D02*
X290547562Y-177671404D01*
X290547562Y-177671404D02*
X290547562Y-177290452D01*
X290023753Y-178766642D02*
X290023753Y-178290452D01*
X290023753Y-178290452D02*
X290499943Y-178242833D01*
X290499943Y-178242833D02*
X290452324Y-178290452D01*
X290452324Y-178290452D02*
X290404705Y-178385690D01*
X290404705Y-178385690D02*
X290404705Y-178623785D01*
X290404705Y-178623785D02*
X290452324Y-178719023D01*
X290452324Y-178719023D02*
X290499943Y-178766642D01*
X290499943Y-178766642D02*
X290595181Y-178814261D01*
X290595181Y-178814261D02*
X290833276Y-178814261D01*
X290833276Y-178814261D02*
X290928514Y-178766642D01*
X290928514Y-178766642D02*
X290976134Y-178719023D01*
X290976134Y-178719023D02*
X291023753Y-178623785D01*
X291023753Y-178623785D02*
X291023753Y-178385690D01*
X291023753Y-178385690D02*
X290976134Y-178290452D01*
X290976134Y-178290452D02*
X290928514Y-178242833D01*
X290023753Y-179147595D02*
X290023753Y-179766642D01*
X290023753Y-179766642D02*
X290404705Y-179433309D01*
X290404705Y-179433309D02*
X290404705Y-179576166D01*
X290404705Y-179576166D02*
X290452324Y-179671404D01*
X290452324Y-179671404D02*
X290499943Y-179719023D01*
X290499943Y-179719023D02*
X290595181Y-179766642D01*
X290595181Y-179766642D02*
X290833276Y-179766642D01*
X290833276Y-179766642D02*
X290928514Y-179719023D01*
X290928514Y-179719023D02*
X290976134Y-179671404D01*
X290976134Y-179671404D02*
X291023753Y-179576166D01*
X291023753Y-179576166D02*
X291023753Y-179290452D01*
X291023753Y-179290452D02*
X290976134Y-179195214D01*
X290976134Y-179195214D02*
X290928514Y-179147595D01*
X224991791Y-157614318D02*
X225039410Y-157661938D01*
X225039410Y-157661938D02*
X225182267Y-157709557D01*
X225182267Y-157709557D02*
X225277505Y-157709557D01*
X225277505Y-157709557D02*
X225420362Y-157661938D01*
X225420362Y-157661938D02*
X225515600Y-157566699D01*
X225515600Y-157566699D02*
X225563219Y-157471461D01*
X225563219Y-157471461D02*
X225610838Y-157280985D01*
X225610838Y-157280985D02*
X225610838Y-157138128D01*
X225610838Y-157138128D02*
X225563219Y-156947652D01*
X225563219Y-156947652D02*
X225515600Y-156852414D01*
X225515600Y-156852414D02*
X225420362Y-156757176D01*
X225420362Y-156757176D02*
X225277505Y-156709557D01*
X225277505Y-156709557D02*
X225182267Y-156709557D01*
X225182267Y-156709557D02*
X225039410Y-156757176D01*
X225039410Y-156757176D02*
X224991791Y-156804795D01*
X224087029Y-156709557D02*
X224563219Y-156709557D01*
X224563219Y-156709557D02*
X224610838Y-157185747D01*
X224610838Y-157185747D02*
X224563219Y-157138128D01*
X224563219Y-157138128D02*
X224467981Y-157090509D01*
X224467981Y-157090509D02*
X224229886Y-157090509D01*
X224229886Y-157090509D02*
X224134648Y-157138128D01*
X224134648Y-157138128D02*
X224087029Y-157185747D01*
X224087029Y-157185747D02*
X224039410Y-157280985D01*
X224039410Y-157280985D02*
X224039410Y-157519080D01*
X224039410Y-157519080D02*
X224087029Y-157614318D01*
X224087029Y-157614318D02*
X224134648Y-157661938D01*
X224134648Y-157661938D02*
X224229886Y-157709557D01*
X224229886Y-157709557D02*
X224467981Y-157709557D01*
X224467981Y-157709557D02*
X224563219Y-157661938D01*
X224563219Y-157661938D02*
X224610838Y-157614318D01*
X223706076Y-156709557D02*
X223087029Y-156709557D01*
X223087029Y-156709557D02*
X223420362Y-157090509D01*
X223420362Y-157090509D02*
X223277505Y-157090509D01*
X223277505Y-157090509D02*
X223182267Y-157138128D01*
X223182267Y-157138128D02*
X223134648Y-157185747D01*
X223134648Y-157185747D02*
X223087029Y-157280985D01*
X223087029Y-157280985D02*
X223087029Y-157519080D01*
X223087029Y-157519080D02*
X223134648Y-157614318D01*
X223134648Y-157614318D02*
X223182267Y-157661938D01*
X223182267Y-157661938D02*
X223277505Y-157709557D01*
X223277505Y-157709557D02*
X223563219Y-157709557D01*
X223563219Y-157709557D02*
X223658457Y-157661938D01*
X223658457Y-157661938D02*
X223706076Y-157614318D01*
D12*
X283173934Y-213179738D02*
X284223934Y-213179738D01*
X284573934Y-210254738D02*
X284573934Y-213154738D01*
X284573934Y-213154738D02*
X285423934Y-213154738D01*
X285423934Y-210254738D02*
X284573934Y-210254738D01*
X285423934Y-213154738D02*
X285423934Y-210254738D01*
D13*
X245665293Y-187004738D02*
X245972575Y-187004738D01*
X245665293Y-187764738D02*
X245972575Y-187764738D01*
X250998895Y-174679992D02*
X250691613Y-174679992D01*
X250998895Y-173919992D02*
X250691613Y-173919992D01*
X245665293Y-187974738D02*
X245972575Y-187974738D01*
X245665293Y-188734738D02*
X245972575Y-188734738D01*
X245665293Y-188944738D02*
X245972575Y-188944738D01*
X245665293Y-189704738D02*
X245972575Y-189704738D01*
X228706770Y-210444738D02*
X228491098Y-210444738D01*
X228706770Y-209724738D02*
X228491098Y-209724738D01*
X228696770Y-209464738D02*
X228481098Y-209464738D01*
X228696770Y-208744738D02*
X228481098Y-208744738D01*
X256968934Y-183058379D02*
X256968934Y-182751097D01*
X257728934Y-183058379D02*
X257728934Y-182751097D01*
X287268934Y-210368379D02*
X287268934Y-210061097D01*
X288028934Y-210368379D02*
X288028934Y-210061097D01*
X287248934Y-212278379D02*
X287248934Y-211971097D01*
X288008934Y-212278379D02*
X288008934Y-211971097D01*
X228237575Y-152379738D02*
X227930293Y-152379738D01*
X228237575Y-151619738D02*
X227930293Y-151619738D01*
X226243934Y-151683379D02*
X226243934Y-151376097D01*
X227003934Y-151683379D02*
X227003934Y-151376097D01*
X229892575Y-204264738D02*
X229585293Y-204264738D01*
X229892575Y-203504738D02*
X229585293Y-203504738D01*
X255618934Y-175808379D02*
X255618934Y-175501097D01*
X256378934Y-175808379D02*
X256378934Y-175501097D01*
X230357682Y-157964738D02*
X231780186Y-157964738D01*
X230357682Y-160684738D02*
X231780186Y-160684738D01*
X254618934Y-175808379D02*
X254618934Y-175501097D01*
X255378934Y-175808379D02*
X255378934Y-175501097D01*
X282038934Y-211032574D02*
X282038934Y-210816902D01*
X282758934Y-211032574D02*
X282758934Y-210816902D01*
X228661098Y-156844738D02*
X228876770Y-156844738D01*
X228661098Y-157564738D02*
X228876770Y-157564738D01*
D12*
X230863934Y-208299738D02*
X230863934Y-207249738D01*
X227938934Y-206899738D02*
X230838934Y-206899738D01*
X230838934Y-206899738D02*
X230838934Y-206049738D01*
X227938934Y-206049738D02*
X227938934Y-206899738D01*
X230838934Y-206049738D02*
X227938934Y-206049738D01*
X233928934Y-212544738D02*
X233928934Y-211944738D01*
X276138934Y-212804738D02*
X276138934Y-213404738D01*
D13*
X230361098Y-208734738D02*
X230576770Y-208734738D01*
X230361098Y-209454738D02*
X230576770Y-209454738D01*
X255218934Y-183058379D02*
X255218934Y-182751097D01*
X255978934Y-183058379D02*
X255978934Y-182751097D01*
X226986770Y-158554738D02*
X226771098Y-158554738D01*
X226986770Y-157834738D02*
X226771098Y-157834738D01*
X282748934Y-212716902D02*
X282748934Y-212932574D01*
X282028934Y-212716902D02*
X282028934Y-212932574D01*
D12*
X229163934Y-156429738D02*
X229163934Y-155379738D01*
X226238934Y-155029738D02*
X229138934Y-155029738D01*
X229138934Y-155029738D02*
X229138934Y-154179738D01*
X226238934Y-154179738D02*
X226238934Y-155029738D01*
X229138934Y-154179738D02*
X226238934Y-154179738D01*
D13*
X277918934Y-212545990D02*
X277918934Y-211123486D01*
X280638934Y-212545990D02*
X280638934Y-211123486D01*
X245665293Y-186024738D02*
X245972575Y-186024738D01*
X245665293Y-186784738D02*
X245972575Y-186784738D01*
X230810186Y-213574738D02*
X229387682Y-213574738D01*
X230810186Y-210854738D02*
X229387682Y-210854738D01*
X281048934Y-211042574D02*
X281048934Y-210826902D01*
X281768934Y-211042574D02*
X281768934Y-210826902D01*
X268198934Y-161848379D02*
X268198934Y-161541097D01*
X268958934Y-161848379D02*
X268958934Y-161541097D01*
X292518934Y-171933379D02*
X292518934Y-171626097D01*
X293278934Y-171933379D02*
X293278934Y-171626097D01*
D12*
X221298934Y-162304738D02*
X221898934Y-162304738D01*
D13*
X257378934Y-174476097D02*
X257378934Y-174783379D01*
X256618934Y-174476097D02*
X256618934Y-174783379D01*
X227992575Y-204264738D02*
X227685293Y-204264738D01*
X227992575Y-203504738D02*
X227685293Y-203504738D01*
X259053934Y-174476097D02*
X259053934Y-174783379D01*
X258293934Y-174476097D02*
X258293934Y-174783379D01*
X289018934Y-178658379D02*
X289018934Y-178351097D01*
X289778934Y-178658379D02*
X289778934Y-178351097D01*
X226996770Y-157574738D02*
X226781098Y-157574738D01*
X226996770Y-156854738D02*
X226781098Y-156854738D01*
M02*
