M48
INCH,TZ
T1C0.0098
T2C0.0118
T3C0.0138
T4C0.0177
T5C0.0236
T6C0.0276
T7C0.0394
T8C0.0866
T9C0.0906
%
G90
G05
T1
X96350Y-73777
X96354Y-74309
X96574Y-74770
X97622Y-72085
X97720Y-71833
X98500Y-71636
X98504Y-71943
X98547Y-69081
X98547Y-69309
X98547Y-70499
X98547Y-70726
X98676Y-72305
X98904Y-72305
X99779Y-72305
X100006Y-72305
X100093Y-68457
X100321Y-68457
X100602Y-68451
X100846Y-68451
X100846Y-72207
X101102Y-72207
X101387Y-68555
X101624Y-68555
X102311Y-71163
X102315Y-70848
X103133Y-71057
X103157Y-71340
X103850Y-73510
X103850Y-73907
X104204Y-63156
X104204Y-63447
X104204Y-63722
X104204Y-63998
X104389Y-63156
X104389Y-63447
X104389Y-63722
X104389Y-63998
X104586Y-63156
X104586Y-63447
X104586Y-63722
X104586Y-63998
X104692Y-66781
X105385Y-69608
X105404Y-62965
X105405Y-67624
X105409Y-68600
X105409Y-69159
X105511Y-62108
X105837Y-62965
X105840Y-63195
X106523Y-62112
X111614Y-79297
X113208Y-60947
X113208Y-61419
X113523Y-66833
X113523Y-67108
X113523Y-67384
X113523Y-67650
X113848Y-66833
X113848Y-67106
X113848Y-67382
X113848Y-67650
X114133Y-79293
X114673Y-77088
X114754Y-62275
X115059Y-72679
X115088Y-66768
X115275Y-71640
X115403Y-66768
X115474Y-67122
X115787Y-79340
X116011Y-78640
X116181Y-74667
X116240Y-72581
X116826Y-80588
X117578Y-73368
X117578Y-78772
X119192Y-78683
T2
X87685Y-70596
X89592Y-59457
X90626Y-83218
X91740Y-79553
X98771Y-70612
X98775Y-69199
X98791Y-72077
X99897Y-72077
X100204Y-68683
X105950Y-63868
X115541Y-67835
T3
X87736Y-82403
X87952Y-82207
X89031Y-82490
X89639Y-61059
X89754Y-62325
X89921Y-62128
X90311Y-81474
X90590Y-82571
X93626Y-64179
X94019Y-64175
X94799Y-65029
X94807Y-64124
X95968Y-67462
X96441Y-64289
X96645Y-65809
X97169Y-71340
X97215Y-69984
X97333Y-67384
X97704Y-67746
X98078Y-67738
X98553Y-68398
X99114Y-73966
X99118Y-73608
X99165Y-68620
X99425Y-66793
X99433Y-67140
X100468Y-74179
X100539Y-66585
X100679Y-67167
X100692Y-73612
X101267Y-66797
X101269Y-67157
X101464Y-74187
X101578Y-73616
X101622Y-67171
X101732Y-72187
X102086Y-66793
X102563Y-74474
X102724Y-66789
X102724Y-67163
X103787Y-70907
X103807Y-69447
X104307Y-69608
X104535Y-61955
X105531Y-68014
X106318Y-69923
X106968Y-70041
X107815Y-70848
X108057Y-64701
X110708Y-83447
X110944Y-83634
X112023Y-83348
X112480Y-62108
X112988Y-70624
X112988Y-71018
X113130Y-62128
X114055Y-62049
X115118Y-70671
X115118Y-71065
X117618Y-68486
X117815Y-72876
X118208Y-73821
X118464Y-75179
X119291Y-75396
X119941Y-81557
X119960Y-73762
T4
X85937Y-63214
X86889Y-71025
X86889Y-71419
X86889Y-71813
X87381Y-71025
X87381Y-71419
X87381Y-71813
X87874Y-71419
X93228Y-71734
X93287Y-59411
X93287Y-59903
X93681Y-59411
X93681Y-59903
X93681Y-60396
X94074Y-59411
X94074Y-59903
X95161Y-63305
X95689Y-63297
X96063Y-77640
X96582Y-69746
X96602Y-71183
X96708Y-72746
X97220Y-72730
X97334Y-65785
X97941Y-73569
X97941Y-73955
X98082Y-66301
X99055Y-63073
X99586Y-83624
X99586Y-84116
X99980Y-83132
X99980Y-83624
X99980Y-84116
X100374Y-83624
X100374Y-84116
X100586Y-69608
X100850Y-66297
X100944Y-77876
X102844Y-63260
X102844Y-63840
X103716Y-71403
X103716Y-72281
X104334Y-70691
X106742Y-75277
X108039Y-63388
X109212Y-71655
X109212Y-75277
X109360Y-62325
X109370Y-61892
X109921Y-63279
X110147Y-62325
X110157Y-61892
X110452Y-81065
X111161Y-76085
X111535Y-76085
X111574Y-66931
X111574Y-67561
X112047Y-71222
X112263Y-70602
X113228Y-59687
X113326Y-69569
X113631Y-63279
X114005Y-81065
X114074Y-63466
X114084Y-62935
X114507Y-62571
X114567Y-69569
X115137Y-83624
X115137Y-84116
X115334Y-63939
X115334Y-64333
X115482Y-61025
X115482Y-61390
X115482Y-61724
X115531Y-83132
X115531Y-83624
X115531Y-84116
X115610Y-62590
X115925Y-63939
X115925Y-64333
X115925Y-83624
X115925Y-84116
X116515Y-63939
X116515Y-64333
X116535Y-77482
X116535Y-77876
X117106Y-63939
X117106Y-64333
X117106Y-77876
X117342Y-66203
X117677Y-67157
X117696Y-63939
X117696Y-64333
X118031Y-59687
X118031Y-71636
X118031Y-77856
X118189Y-63939
X118189Y-64333
X118218Y-61025
X118218Y-61400
X118218Y-61734
X118582Y-71636
X118622Y-72403
X120078Y-75947
X120078Y-77699
X120956Y-66852
X120956Y-67246
X120956Y-67620
X121350Y-66848
X121350Y-67246
X121350Y-67620
X122204Y-78112
X122283Y-68663
X122283Y-72049
X122283Y-75120
T5
X85755Y-82817
X86976Y-79994
X87881Y-83738
X89527Y-83545
X92110Y-62730
X105696Y-66297
X108000Y-83888
X109952Y-82352
X111114Y-82305
X111464Y-85073
T6
X89842Y-65699
X89842Y-66683
X89842Y-67470
X89842Y-68455
X89842Y-74368
X89842Y-75352
X89842Y-76140
X89842Y-77124
X90433Y-65502
X90433Y-66289
X90433Y-67077
X90433Y-67864
X90433Y-68651
X90433Y-74171
X90433Y-74959
X90433Y-75746
X90433Y-76533
X90433Y-77321
X93610Y-80671
X93807Y-81262
X94397Y-80671
X94791Y-81262
X95185Y-80671
X95578Y-81262
X95972Y-80671
X96563Y-81262
X96759Y-80671
X103031Y-80671
X103228Y-81262
X103818Y-80671
X104212Y-81262
X104606Y-80671
X105000Y-81262
X105393Y-80671
X105984Y-81262
X106181Y-80671
T7
X97519Y-60120
X98519Y-60120
X99519Y-60120
X100519Y-60120
X101519Y-60120
X102519Y-60120
X103519Y-60120
X104519Y-60120
X105519Y-60120
X106519Y-60120
X107519Y-60120
X108519Y-60120
X109519Y-60120
X110519Y-60120
X117944Y-69671
X118944Y-69671
X119944Y-69671
X121004Y-64608
X121023Y-62777
T8
X86299Y-60396
X86299Y-84805
X121338Y-60396
X121338Y-84805
T9
X89055Y-64490
X89055Y-69663
X89055Y-73159
X89055Y-78333
X92598Y-82049
X97771Y-82049
X102019Y-82049
X107192Y-82049
T0
M30
