%TF.GenerationSoftware,KiCad,Pcbnew,7.0.5*%
%TF.CreationDate,2023-07-29T13:43:45+03:00*%
%TF.ProjectId,cf33_dock,63663333-5f64-46f6-936b-2e6b69636164,rev?*%
%TF.SameCoordinates,Original*%
%TF.FileFunction,Paste,Top*%
%TF.FilePolarity,Positive*%
%FSLAX46Y46*%
G04 Gerber Fmt 4.6, Leading zero omitted, Abs format (unit mm)*
G04 Created by KiCad (PCBNEW 7.0.5) date 2023-07-29 13:43:45*
%MOMM*%
%LPD*%
G01*
G04 APERTURE LIST*
G04 Aperture macros list*
%AMRoundRect*
0 Rectangle with rounded corners*
0 $1 Rounding radius*
0 $2 $3 $4 $5 $6 $7 $8 $9 X,Y pos of 4 corners*
0 Add a 4 corners polygon primitive as box body*
4,1,4,$2,$3,$4,$5,$6,$7,$8,$9,$2,$3,0*
0 Add four circle primitives for the rounded corners*
1,1,$1+$1,$2,$3*
1,1,$1+$1,$4,$5*
1,1,$1+$1,$6,$7*
1,1,$1+$1,$8,$9*
0 Add four rect primitives between the rounded corners*
20,1,$1+$1,$2,$3,$4,$5,0*
20,1,$1+$1,$4,$5,$6,$7,0*
20,1,$1+$1,$6,$7,$8,$9,0*
20,1,$1+$1,$8,$9,$2,$3,0*%
G04 Aperture macros list end*
%ADD10R,0.700000X0.300000*%
%ADD11R,1.000000X1.800000*%
%ADD12R,1.050000X0.200000*%
%ADD13R,0.200000X1.050000*%
%ADD14R,8.100000X8.100000*%
%ADD15R,1.475000X0.300000*%
%ADD16R,0.300000X1.475000*%
%ADD17RoundRect,0.135000X0.185000X-0.135000X0.185000X0.135000X-0.185000X0.135000X-0.185000X-0.135000X0*%
%ADD18RoundRect,0.140000X0.170000X-0.140000X0.170000X0.140000X-0.170000X0.140000X-0.170000X-0.140000X0*%
%ADD19R,1.200000X1.400000*%
%ADD20RoundRect,0.140000X0.140000X0.170000X-0.140000X0.170000X-0.140000X-0.170000X0.140000X-0.170000X0*%
%ADD21RoundRect,0.140000X-0.170000X0.140000X-0.170000X-0.140000X0.170000X-0.140000X0.170000X0.140000X0*%
%ADD22RoundRect,0.140000X-0.140000X-0.170000X0.140000X-0.170000X0.140000X0.170000X-0.140000X0.170000X0*%
%ADD23RoundRect,0.135000X-0.135000X-0.185000X0.135000X-0.185000X0.135000X0.185000X-0.135000X0.185000X0*%
%ADD24RoundRect,0.135000X-0.185000X0.135000X-0.185000X-0.135000X0.185000X-0.135000X0.185000X0.135000X0*%
%ADD25RoundRect,0.135000X0.135000X0.185000X-0.135000X0.185000X-0.135000X-0.185000X0.135000X-0.185000X0*%
%ADD26R,0.800000X1.800000*%
%ADD27R,0.850000X2.200000*%
%ADD28R,0.700000X0.650000*%
%ADD29RoundRect,0.225000X-0.225000X-0.250000X0.225000X-0.250000X0.225000X0.250000X-0.225000X0.250000X0*%
%ADD30R,0.750000X0.940000*%
%ADD31RoundRect,0.250000X-1.100000X0.325000X-1.100000X-0.325000X1.100000X-0.325000X1.100000X0.325000X0*%
%ADD32R,2.100000X1.400000*%
%ADD33R,1.000000X0.500000*%
%ADD34R,2.790000X0.740000*%
%ADD35RoundRect,0.225000X-0.250000X0.225000X-0.250000X-0.225000X0.250000X-0.225000X0.250000X0.225000X0*%
%ADD36R,1.050000X0.550000*%
%ADD37R,1.150000X0.500000*%
%ADD38R,1.450000X1.800000*%
%ADD39R,5.100000X1.900000*%
%ADD40R,0.300000X0.492000*%
%ADD41RoundRect,0.250000X0.475000X-0.250000X0.475000X0.250000X-0.475000X0.250000X-0.475000X-0.250000X0*%
G04 APERTURE END LIST*
D10*
X272055770Y-162331574D03*
X272055770Y-161831574D03*
X272055770Y-161331574D03*
X272055770Y-160831574D03*
X269955770Y-160831574D03*
X269955770Y-161331574D03*
X269955770Y-161831574D03*
X269955770Y-162331574D03*
D11*
X271005770Y-161581574D03*
D12*
X249276320Y-173955254D03*
X249276320Y-174355254D03*
X249276320Y-174755254D03*
X249276320Y-175155254D03*
X249276320Y-175555254D03*
X249276320Y-175955254D03*
X249276320Y-176355254D03*
X249276320Y-176755254D03*
X249276320Y-177155254D03*
X249276320Y-177555254D03*
X249276320Y-177955254D03*
X249276320Y-178355254D03*
X249276320Y-178755254D03*
X249276320Y-179155254D03*
X249276320Y-179555254D03*
X249276320Y-179955254D03*
X249276320Y-180355254D03*
X249276320Y-180755254D03*
X249276320Y-181155254D03*
X249276320Y-181555254D03*
X249276320Y-181955254D03*
X249276320Y-182355254D03*
X249276320Y-182755254D03*
X249276320Y-183155254D03*
X249276320Y-183555254D03*
D13*
X250326320Y-184605254D03*
X250726320Y-184605254D03*
X251126320Y-184605254D03*
X251526320Y-184605254D03*
X251926320Y-184605254D03*
X252326320Y-184605254D03*
X252726320Y-184605254D03*
X253126320Y-184605254D03*
X253526320Y-184605254D03*
X253926320Y-184605254D03*
X254326320Y-184605254D03*
X254726320Y-184605254D03*
X255126320Y-184605254D03*
X255526320Y-184605254D03*
X255926320Y-184605254D03*
X256326320Y-184605254D03*
X256726320Y-184605254D03*
X257126320Y-184605254D03*
X257526320Y-184605254D03*
X257926320Y-184605254D03*
X258326320Y-184605254D03*
X258726320Y-184605254D03*
X259126320Y-184605254D03*
X259526320Y-184605254D03*
X259926320Y-184605254D03*
D12*
X260976320Y-183555254D03*
X260976320Y-183155254D03*
X260976320Y-182755254D03*
X260976320Y-182355254D03*
X260976320Y-181955254D03*
X260976320Y-181555254D03*
X260976320Y-181155254D03*
X260976320Y-180755254D03*
X260976320Y-180355254D03*
X260976320Y-179955254D03*
X260976320Y-179555254D03*
X260976320Y-179155254D03*
X260976320Y-178755254D03*
X260976320Y-178355254D03*
X260976320Y-177955254D03*
X260976320Y-177555254D03*
X260976320Y-177155254D03*
X260976320Y-176755254D03*
X260976320Y-176355254D03*
X260976320Y-175955254D03*
X260976320Y-175555254D03*
X260976320Y-175155254D03*
X260976320Y-174755254D03*
X260976320Y-174355254D03*
X260976320Y-173955254D03*
D13*
X259926320Y-172905254D03*
X259526320Y-172905254D03*
X259126320Y-172905254D03*
X258726320Y-172905254D03*
X258326320Y-172905254D03*
X257926320Y-172905254D03*
X257526320Y-172905254D03*
X257126320Y-172905254D03*
X256726320Y-172905254D03*
X256326320Y-172905254D03*
X255926320Y-172905254D03*
X255526320Y-172905254D03*
X255126320Y-172905254D03*
X254726320Y-172905254D03*
X254326320Y-172905254D03*
X253926320Y-172905254D03*
X253526320Y-172905254D03*
X253126320Y-172905254D03*
X252726320Y-172905254D03*
X252326320Y-172905254D03*
X251926320Y-172905254D03*
X251526320Y-172905254D03*
X251126320Y-172905254D03*
X250726320Y-172905254D03*
X250326320Y-172905254D03*
D14*
X255126320Y-178755254D03*
D15*
X297261934Y-192604738D03*
X297261934Y-192104738D03*
X297261934Y-191604738D03*
X297261934Y-191104738D03*
X297261934Y-190604738D03*
X297261934Y-190104738D03*
X297261934Y-189604738D03*
X297261934Y-189104738D03*
X297261934Y-188604738D03*
X297261934Y-188104738D03*
X297261934Y-187604738D03*
X297261934Y-187104738D03*
X297261934Y-186604738D03*
X297261934Y-186104738D03*
X297261934Y-185604738D03*
X297261934Y-185104738D03*
D16*
X295273934Y-183116738D03*
X294773934Y-183116738D03*
X294273934Y-183116738D03*
X293773934Y-183116738D03*
X293273934Y-183116738D03*
X292773934Y-183116738D03*
X292273934Y-183116738D03*
X291773934Y-183116738D03*
X291273934Y-183116738D03*
X290773934Y-183116738D03*
X290273934Y-183116738D03*
X289773934Y-183116738D03*
X289273934Y-183116738D03*
X288773934Y-183116738D03*
X288273934Y-183116738D03*
X287773934Y-183116738D03*
D15*
X285785934Y-185104738D03*
X285785934Y-185604738D03*
X285785934Y-186104738D03*
X285785934Y-186604738D03*
X285785934Y-187104738D03*
X285785934Y-187604738D03*
X285785934Y-188104738D03*
X285785934Y-188604738D03*
X285785934Y-189104738D03*
X285785934Y-189604738D03*
X285785934Y-190104738D03*
X285785934Y-190604738D03*
X285785934Y-191104738D03*
X285785934Y-191604738D03*
X285785934Y-192104738D03*
X285785934Y-192604738D03*
D16*
X287773934Y-194592738D03*
X288273934Y-194592738D03*
X288773934Y-194592738D03*
X289273934Y-194592738D03*
X289773934Y-194592738D03*
X290273934Y-194592738D03*
X290773934Y-194592738D03*
X291273934Y-194592738D03*
X291773934Y-194592738D03*
X292273934Y-194592738D03*
X292773934Y-194592738D03*
X293273934Y-194592738D03*
X293773934Y-194592738D03*
X294273934Y-194592738D03*
X294773934Y-194592738D03*
X295273934Y-194592738D03*
D17*
X238808934Y-164604738D03*
X238808934Y-163584738D03*
D18*
X247221286Y-170577632D03*
X247221286Y-169617632D03*
D19*
X243775770Y-168156574D03*
X243775770Y-170356574D03*
X245475770Y-170356574D03*
X245475770Y-168156574D03*
D20*
X246935254Y-177179992D03*
X245975254Y-177179992D03*
D21*
X249398934Y-186894738D03*
X249398934Y-187854738D03*
X257448934Y-186894738D03*
X257448934Y-187854738D03*
X252323934Y-186899738D03*
X252323934Y-187859738D03*
D22*
X263448934Y-182954738D03*
X264408934Y-182954738D03*
D20*
X246948934Y-184114738D03*
X245988934Y-184114738D03*
D22*
X263438934Y-179564738D03*
X264398934Y-179564738D03*
D21*
X255188934Y-186899738D03*
X255188934Y-187859738D03*
D22*
X263448934Y-181974738D03*
X264408934Y-181974738D03*
D18*
X258738934Y-170614738D03*
X258738934Y-169654738D03*
X260348934Y-170614738D03*
X260348934Y-169654738D03*
X255173934Y-170609738D03*
X255173934Y-169649738D03*
X256648934Y-170609738D03*
X256648934Y-169649738D03*
D20*
X246935254Y-180689992D03*
X245975254Y-180689992D03*
D18*
X240798934Y-164574738D03*
X240798934Y-163614738D03*
X241718934Y-162544738D03*
X241718934Y-161584738D03*
D23*
X294438934Y-203314738D03*
X295458934Y-203314738D03*
D24*
X239808934Y-163584738D03*
X239808934Y-164604738D03*
D25*
X271708934Y-178494738D03*
X270688934Y-178494738D03*
X269458934Y-177604738D03*
X268438934Y-177604738D03*
D26*
X268113934Y-161329738D03*
X266513934Y-161329738D03*
D27*
X292198934Y-170929738D03*
X290148934Y-170929738D03*
D22*
X263428934Y-176954738D03*
X264388934Y-176954738D03*
D18*
X253125770Y-170611574D03*
X253125770Y-169651574D03*
D20*
X249130770Y-171481574D03*
X248170770Y-171481574D03*
D25*
X244028934Y-163954738D03*
X243008934Y-163954738D03*
D17*
X259878934Y-189184738D03*
X259878934Y-188164738D03*
D20*
X234858934Y-167864738D03*
X233898934Y-167864738D03*
D17*
X298178934Y-197764738D03*
X298178934Y-196744738D03*
D21*
X238278934Y-199854738D03*
X238278934Y-200814738D03*
D18*
X300918934Y-188544738D03*
X300918934Y-187584738D03*
D28*
X220918934Y-205679738D03*
X220918934Y-204329738D03*
X290248934Y-178074738D03*
X290248934Y-176724738D03*
D29*
X284623934Y-171554738D03*
X286173934Y-171554738D03*
D30*
X301198934Y-182764738D03*
X299798934Y-182764738D03*
D25*
X294658934Y-198754738D03*
X293638934Y-198754738D03*
D23*
X295218934Y-173984738D03*
X296238934Y-173984738D03*
D25*
X263288934Y-187714738D03*
X262268934Y-187714738D03*
D24*
X237818934Y-163594738D03*
X237818934Y-164614738D03*
D18*
X247221286Y-168672632D03*
X247221286Y-167712632D03*
X285388934Y-180874738D03*
X285388934Y-179914738D03*
D20*
X283328934Y-192604738D03*
X282368934Y-192604738D03*
D17*
X268008934Y-156584738D03*
X268008934Y-155564738D03*
D22*
X290228934Y-180364738D03*
X291188934Y-180364738D03*
D17*
X302138934Y-180434738D03*
X302138934Y-179414738D03*
D31*
X220948934Y-207349738D03*
X220948934Y-210299738D03*
D20*
X288618934Y-180369738D03*
X287658934Y-180369738D03*
D17*
X304988934Y-196714738D03*
X304988934Y-195694738D03*
D29*
X262023934Y-162154738D03*
X263573934Y-162154738D03*
D32*
X282108934Y-201394738D03*
X282108934Y-205894738D03*
X291208934Y-201394738D03*
X291208934Y-205894738D03*
D21*
X253548934Y-155249738D03*
X253548934Y-156209738D03*
D33*
X302958934Y-194544738D03*
X302958934Y-195644738D03*
D34*
X302733934Y-208464738D03*
X298663934Y-208464738D03*
X302733934Y-207194738D03*
X298663934Y-207194738D03*
X302733934Y-205924738D03*
X298663934Y-205924738D03*
X302733934Y-204654738D03*
X298663934Y-204654738D03*
X302733934Y-203384738D03*
X298663934Y-203384738D03*
X302733934Y-202114738D03*
X298663934Y-202114738D03*
X302733934Y-200844738D03*
X298663934Y-200844738D03*
D35*
X298048934Y-169029738D03*
X298048934Y-170579738D03*
D23*
X297138934Y-173974738D03*
X298158934Y-173974738D03*
D29*
X290573934Y-161454738D03*
X292123934Y-161454738D03*
D23*
X266213934Y-173729738D03*
X267233934Y-173729738D03*
D18*
X224038934Y-208954738D03*
X224038934Y-207994738D03*
D22*
X295248934Y-173004738D03*
X296208934Y-173004738D03*
D20*
X279353934Y-201404738D03*
X278393934Y-201404738D03*
D22*
X287658934Y-179399738D03*
X288618934Y-179399738D03*
X299698934Y-183914738D03*
X300658934Y-183914738D03*
D17*
X293698934Y-197814738D03*
X293698934Y-196794738D03*
D21*
X224048934Y-209864738D03*
X224048934Y-210824738D03*
D25*
X267233934Y-172754738D03*
X266213934Y-172754738D03*
D29*
X284598934Y-169904738D03*
X286148934Y-169904738D03*
D17*
X258898934Y-189184738D03*
X258898934Y-188164738D03*
D24*
X264298934Y-169634738D03*
X264298934Y-170654738D03*
D25*
X267233934Y-174704738D03*
X266213934Y-174704738D03*
D17*
X299448934Y-180424738D03*
X299448934Y-179404738D03*
D25*
X263288934Y-186714738D03*
X262268934Y-186714738D03*
D29*
X290573934Y-159904738D03*
X292123934Y-159904738D03*
D36*
X225338934Y-208574738D03*
X225338934Y-209524738D03*
X225338934Y-210474738D03*
X227938934Y-210474738D03*
X227938934Y-208574738D03*
D24*
X265288934Y-169634738D03*
X265288934Y-170654738D03*
D25*
X289183934Y-155829738D03*
X288163934Y-155829738D03*
D21*
X262208934Y-199914738D03*
X262208934Y-200874738D03*
D24*
X305008934Y-193514738D03*
X305008934Y-194534738D03*
X229238934Y-208574738D03*
X229238934Y-209594738D03*
D20*
X291198934Y-179399738D03*
X290238934Y-179399738D03*
D25*
X307468934Y-202134738D03*
X306448934Y-202134738D03*
D37*
X243058934Y-161384738D03*
X243058934Y-162684738D03*
X244958934Y-162034738D03*
D38*
X281223934Y-157954738D03*
X284173934Y-157954738D03*
D22*
X291443934Y-155029738D03*
X292403934Y-155029738D03*
D21*
X295298934Y-196824738D03*
X295298934Y-197784738D03*
D39*
X297098934Y-155854738D03*
X297098934Y-160054738D03*
D25*
X267218934Y-175679738D03*
X266198934Y-175679738D03*
X263288934Y-185714738D03*
X262268934Y-185714738D03*
D23*
X273128934Y-162394738D03*
X274148934Y-162394738D03*
D24*
X265508934Y-155584738D03*
X265508934Y-156604738D03*
D25*
X289183934Y-154829738D03*
X288163934Y-154829738D03*
X267233934Y-171779738D03*
X266213934Y-171779738D03*
D35*
X273628934Y-159449738D03*
X273628934Y-160999738D03*
D17*
X270568934Y-156574738D03*
X270568934Y-155554738D03*
D40*
X290198934Y-157613738D03*
X290698934Y-157613738D03*
X291198934Y-157613738D03*
X291198934Y-155945738D03*
X290698934Y-155945738D03*
X290198934Y-155945738D03*
D21*
X254548934Y-155249738D03*
X254548934Y-156209738D03*
D29*
X262023934Y-160634738D03*
X263573934Y-160634738D03*
D24*
X262348934Y-169634738D03*
X262348934Y-170654738D03*
D23*
X297713934Y-172054738D03*
X298733934Y-172054738D03*
D21*
X263188934Y-199914738D03*
X263188934Y-200874738D03*
D25*
X267208934Y-177184738D03*
X266188934Y-177184738D03*
D22*
X270988934Y-163374738D03*
X271948934Y-163374738D03*
D20*
X234798934Y-189874738D03*
X233838934Y-189874738D03*
D24*
X263328934Y-169634738D03*
X263328934Y-170654738D03*
D25*
X267188934Y-180784738D03*
X266168934Y-180784738D03*
D20*
X234858934Y-166894738D03*
X233898934Y-166894738D03*
D23*
X229188934Y-210524738D03*
X230208934Y-210524738D03*
D21*
X223068934Y-209854738D03*
X223068934Y-210814738D03*
D25*
X271968934Y-164354738D03*
X270948934Y-164354738D03*
D19*
X303018934Y-188324738D03*
X303018934Y-190524738D03*
X304718934Y-190524738D03*
X304718934Y-188324738D03*
D21*
X239258934Y-199854738D03*
X239258934Y-200814738D03*
D41*
X288648934Y-159854738D03*
X288648934Y-157954738D03*
D25*
X273848934Y-179334738D03*
X272828934Y-179334738D03*
D28*
X288608934Y-178059738D03*
X288608934Y-176709738D03*
D23*
X272858934Y-164354738D03*
X273878934Y-164354738D03*
D18*
X299148934Y-197734738D03*
X299148934Y-196774738D03*
D21*
X300918934Y-189444738D03*
X300918934Y-190404738D03*
D10*
X296353934Y-171981238D03*
X296353934Y-171481238D03*
X296353934Y-170981238D03*
X296353934Y-170481238D03*
X294253934Y-170481238D03*
X294253934Y-170981238D03*
X294253934Y-171481238D03*
X294253934Y-171981238D03*
D11*
X295303934Y-171231238D03*
D20*
X234798934Y-188914738D03*
X233838934Y-188914738D03*
M02*
